<svg width="1728" height="48" viewBox="0 0 1728 48" fill="none" xmlns="http://www.w3.org/2000/svg">
<mask id="mask0_777_2738" style="mask-type:alpha" maskUnits="userSpaceOnUse" x="0" y="0" width="1728" height="48">
<rect width="1728" height="48" fill="#FDC500"/>
</mask>
<g mask="url(#mask0_777_2738)">
<rect width="1728" height="48" fill="#337DD3"/>
<path d="M-11.9998 0.589355L32.9373 14.8546L77.8744 0.589355L122.812 14.8546L167.749 0.589355L212.686 14.8546L257.623 0.589355L302.56 14.8546L347.535 0.589355L392.472 14.8546L437.409 0.589355L482.346 14.8546L527.283 0.589355L572.258 14.8546L617.195 0.589355L662.132 14.8546L707.069 0.589355L752.044 14.8546L796.981 0.589355L841.918 14.8546L886.893 0.589355L931.83 14.8546L976.767 0.589355L1021.7 14.8546L1066.64 0.589355L1111.58 14.8546L1156.52 0.589355L1201.49 14.8546L1246.43 0.589355L1291.36 14.8546L1336.34 0.589355L1381.28 14.8546L1426.25 0.589355L1471.23 14.8546L1516.16 0.589355L1561.1 14.8546L1606.07 0.589355L1651.05 14.8546L1696.02 0.589355L1741 14.8546" stroke="white" stroke-opacity="0.27" stroke-width="0.961024" stroke-miterlimit="10"/>
<path d="M-12 40.5762L32.9371 54.8414L77.8742 40.5762L122.811 54.8414L167.748 40.5762L212.685 54.8414L257.623 40.5762L302.56 54.8414L347.534 40.5762L392.471 54.8414L437.409 40.5762L482.346 54.8414L527.283 40.5762L572.258 54.8414L617.195 40.5762L662.132 54.8414L707.069 40.5762L752.044 54.8414L796.981 40.5762L841.918 54.8414L886.893 40.5762L931.83 54.8414L976.767 40.5762L1021.7 54.8414L1066.64 40.5762L1111.58 54.8414L1156.52 40.5762L1201.49 54.8414L1246.43 40.5762L1291.36 54.8414L1336.34 40.5762L1381.28 54.8414L1426.25 40.5762L1471.23 54.8414L1516.16 40.5762L1561.1 54.8414L1606.07 40.5762L1651.05 54.8414L1696.02 40.5762L1741 54.8414" stroke="white" stroke-opacity="0.27" stroke-width="0.961024" stroke-miterlimit="10"/>
<path d="M-11.9993 19.6981L32.9378 33.9633L77.8749 19.6981L122.812 33.9633L167.749 19.6981L212.686 33.9633L257.623 19.6981L302.56 33.9633L347.535 19.6981L392.472 33.9633L437.409 19.6981L482.346 33.9633L527.284 19.6981L572.258 33.9633L617.195 19.6981L662.133 33.9633L707.07 19.6981L752.044 33.9633L796.981 19.6981L841.919 33.9633L886.893 19.6981L931.83 33.9633L976.767 19.6981L1021.7 33.9633L1066.64 19.6981L1111.58 33.9633L1156.52 19.6981L1201.49 33.9633L1246.43 19.6981L1291.36 33.9633L1336.34 19.6981L1381.28 33.9633L1426.25 19.6981L1471.23 33.9633L1516.16 19.6981L1561.1 33.9633L1606.08 19.6981L1651.05 33.9633L1696.02 19.6981L1741 33.9633" stroke="white" stroke-opacity="0.27" stroke-width="0.961024" stroke-miterlimit="10"/>
<path d="M-11.9998 10.1436L32.9373 24.4088L77.8744 10.1436L122.812 24.4088L167.749 10.1436L212.686 24.4088L257.623 10.1436L302.56 24.4088L347.535 10.1436L392.472 24.4088L437.409 10.1436L482.346 24.4088L527.283 10.1436L572.258 24.4088L617.195 10.1436L662.132 24.4088L707.069 10.1436L752.044 24.4088L796.981 10.1436L841.918 24.4088L886.893 10.1436L931.83 24.4088L976.767 10.1436L1021.7 24.4088L1066.64 10.1436L1111.58 24.4088L1156.52 10.1436L1201.49 24.4088L1246.43 10.1436L1291.36 24.4088L1336.34 10.1436L1381.28 24.4088L1426.25 10.1436L1471.23 24.4088L1516.16 10.1436L1561.1 24.4088L1606.07 10.1436L1651.05 24.4088L1696.02 10.1436L1741 24.4088" stroke="white" stroke-opacity="0.27" stroke-width="0.961024" stroke-miterlimit="10"/>
<path d="M-11.9998 29.2523L32.9373 43.5175L77.8744 29.2523L122.812 43.5175L167.749 29.2523L212.686 43.5175L257.623 29.2523L302.56 43.5175L347.535 29.2523L392.472 43.5175L437.409 29.2523L482.346 43.5175L527.283 29.2523L572.258 43.5175L617.195 29.2523L662.132 43.5175L707.069 29.2523L752.044 43.5175L796.981 29.2523L841.918 43.5175L886.893 29.2523L931.83 43.5175L976.767 29.2523L1021.7 43.5175L1066.64 29.2523L1111.58 43.5175L1156.52 29.2523L1201.49 43.5175L1246.43 29.2523L1291.36 43.5175L1336.34 29.2523L1381.28 43.5175L1426.25 29.2523L1471.23 43.5175L1516.16 29.2523L1561.1 43.5175L1606.07 29.2523L1651.05 43.5175L1696.02 29.2523L1741 43.5175" stroke="white" stroke-opacity="0.27" stroke-width="0.961024" stroke-miterlimit="10"/>
<path d="M-11.9998 -10.7346L32.9373 3.5306L77.8744 -10.7346L122.812 3.5306L167.749 -10.7346L212.686 3.5306L257.623 -10.7346L302.56 3.5306L347.535 -10.7346L392.472 3.5306L437.409 -10.7346L482.346 3.5306L527.283 -10.7346L572.258 3.5306L617.195 -10.7346L662.132 3.5306L707.069 -10.7346L752.044 3.5306L796.981 -10.7346L841.918 3.5306L886.893 -10.7346L931.83 3.5306L976.767 -10.7346L1021.7 3.5306L1066.64 -10.7346L1111.58 3.5306L1156.52 -10.7346L1201.49 3.5306L1246.43 -10.7346L1291.36 3.5306L1336.34 -10.7346L1381.28 3.5306L1426.25 -10.7346L1471.23 3.5306L1516.16 -10.7346L1561.1 3.5306L1606.07 -10.7346L1651.05 3.5306L1696.02 -10.7346L1741 3.5306" stroke="white" stroke-opacity="0.27" stroke-width="0.961024" stroke-miterlimit="10"/>
</g>
</svg>
