<svg width="290" height="116" viewBox="0 0 290 116" fill="none" xmlns="http://www.w3.org/2000/svg">
<g filter="url(#filter0_d_1_287)">
<rect x="56.724" width="233" height="58" rx="29" fill="#337DD3"/>
<rect x="58.2599" y="1.53592" width="229.928" height="54.9282" rx="27.4641" stroke="white" stroke-width="3.07183"/>
</g>
<path d="M93.2695 22.9663V24.7292H87.6774V28.6153H92.0373V30.3782H87.6774V36.1409H85.5164V22.9663H93.2695ZM96.3716 24.3122C95.9798 24.3122 95.6513 24.1795 95.3859 23.9141C95.1205 23.6487 94.9878 23.3202 94.9878 22.9284C94.9878 22.5366 95.1205 22.2081 95.3859 21.9427C95.6513 21.6773 95.9798 21.5446 96.3716 21.5446C96.7507 21.5446 97.073 21.6773 97.3384 21.9427C97.6038 22.2081 97.7365 22.5366 97.7365 22.9284C97.7365 23.3202 97.6038 23.6487 97.3384 23.9141C97.073 24.1795 96.7507 24.3122 96.3716 24.3122ZM97.4332 25.696V36.1409H95.2722V25.696H97.4332ZM105.54 25.5254C106.362 25.5254 107.095 25.696 107.739 26.0372C108.396 26.3784 108.908 26.8839 109.275 27.5537C109.641 28.2235 109.824 29.0323 109.824 29.9801V36.1409H107.682V30.3024C107.682 29.3672 107.448 28.6532 106.981 28.1603C106.513 27.6548 105.875 27.4021 105.066 27.4021C104.257 27.4021 103.613 27.6548 103.133 28.1603C102.665 28.6532 102.431 29.3672 102.431 30.3024V36.1409H100.27V25.696H102.431V26.8902C102.785 26.4606 103.234 26.1257 103.777 25.8856C104.333 25.6455 104.921 25.5254 105.54 25.5254ZM111.86 30.871C111.86 29.8221 112.075 28.8933 112.505 28.0845C112.947 27.2757 113.541 26.6501 114.287 26.2078C115.045 25.7529 115.885 25.5254 116.808 25.5254C117.49 25.5254 118.16 25.6771 118.817 25.9804C119.487 26.271 120.018 26.6628 120.41 27.1556V22.1133H122.59V36.1409H120.41V34.5675C120.056 35.073 119.563 35.49 118.931 35.8186C118.312 36.1472 117.598 36.3115 116.789 36.3115C115.879 36.3115 115.045 36.084 114.287 35.6291C113.541 35.1615 112.947 34.517 112.505 33.6955C112.075 32.8614 111.86 31.92 111.86 30.871ZM120.41 30.909C120.41 30.1886 120.258 29.5631 119.955 29.0323C119.664 28.5015 119.279 28.0971 118.798 27.8191C118.318 27.5411 117.8 27.4021 117.244 27.4021C116.688 27.4021 116.17 27.5411 115.69 27.8191C115.209 28.0845 114.818 28.4826 114.514 29.0133C114.224 29.5315 114.078 30.1507 114.078 30.871C114.078 31.5914 114.224 32.2233 114.514 32.7667C114.818 33.3101 115.209 33.7271 115.69 34.0178C116.182 34.2958 116.701 34.4348 117.244 34.4348C117.8 34.4348 118.318 34.2958 118.798 34.0178C119.279 33.7398 119.664 33.3354 119.955 32.8046C120.258 32.2612 120.41 31.6293 120.41 30.909ZM139.565 26.8902C139.565 27.56 139.407 28.1919 139.091 28.7859C138.775 29.3798 138.27 29.8664 137.575 30.2455C136.879 30.612 135.989 30.7952 134.902 30.7952H132.513V36.1409H130.352V22.9663H134.902C135.913 22.9663 136.766 23.1432 137.461 23.4971C138.168 23.8383 138.693 24.3059 139.034 24.8998C139.388 25.4938 139.565 26.1573 139.565 26.8902ZM134.902 29.0323C135.723 29.0323 136.336 28.8491 136.74 28.4826C137.145 28.1034 137.347 27.5727 137.347 26.8902C137.347 25.4496 136.532 24.7292 134.902 24.7292H132.513V29.0323H134.902ZM140.906 30.871C140.906 29.8221 141.12 28.8933 141.55 28.0845C141.992 27.2757 142.586 26.6501 143.332 26.2078C144.09 25.7529 144.924 25.5254 145.834 25.5254C146.656 25.5254 147.37 25.6897 147.976 26.0183C148.596 26.3342 149.088 26.7323 149.455 27.2125V25.696H151.635V36.1409H149.455V34.5865C149.088 35.0793 148.589 35.49 147.957 35.8186C147.325 36.1472 146.605 36.3115 145.796 36.3115C144.899 36.3115 144.078 36.084 143.332 35.6291C142.586 35.1615 141.992 34.517 141.55 33.6955C141.12 32.8614 140.906 31.92 140.906 30.871ZM149.455 30.909C149.455 30.1886 149.303 29.5631 149 29.0323C148.709 28.5015 148.324 28.0971 147.844 27.8191C147.363 27.5411 146.845 27.4021 146.289 27.4021C145.733 27.4021 145.215 27.5411 144.735 27.8191C144.255 28.0845 143.863 28.4826 143.559 29.0133C143.269 29.5315 143.123 30.1507 143.123 30.871C143.123 31.5914 143.269 32.2233 143.559 32.7667C143.863 33.3101 144.255 33.7271 144.735 34.0178C145.228 34.2958 145.746 34.4348 146.289 34.4348C146.845 34.4348 147.363 34.2958 147.844 34.0178C148.324 33.7398 148.709 33.3354 149 32.8046C149.303 32.2612 149.455 31.6293 149.455 30.909ZM163.875 25.696L157.468 41.0505H155.231L157.355 35.9703L153.241 25.696H155.648L158.587 33.6576L161.639 25.696H163.875ZM166.606 24.3122C166.214 24.3122 165.885 24.1795 165.62 23.9141C165.355 23.6487 165.222 23.3202 165.222 22.9284C165.222 22.5366 165.355 22.2081 165.62 21.9427C165.885 21.6773 166.214 21.5446 166.606 21.5446C166.985 21.5446 167.307 21.6773 167.573 21.9427C167.838 22.2081 167.971 22.5366 167.971 22.9284C167.971 23.3202 167.838 23.6487 167.573 23.9141C167.307 24.1795 166.985 24.3122 166.606 24.3122ZM167.667 25.696V36.1409H165.506V25.696H167.667ZM175.774 25.5254C176.596 25.5254 177.329 25.696 177.973 26.0372C178.63 26.3784 179.142 26.8839 179.509 27.5537C179.875 28.2235 180.058 29.0323 180.058 29.9801V36.1409H177.916V30.3024C177.916 29.3672 177.683 28.6532 177.215 28.1603C176.747 27.6548 176.109 27.4021 175.3 27.4021C174.492 27.4021 173.847 27.6548 173.367 28.1603C172.899 28.6532 172.666 29.3672 172.666 30.3024V36.1409H170.505V25.696H172.666V26.8902C173.019 26.4606 173.468 26.1257 174.011 25.8856C174.567 25.6455 175.155 25.5254 175.774 25.5254ZM187.023 25.5254C187.832 25.5254 188.546 25.6897 189.165 26.0183C189.797 26.3342 190.29 26.7323 190.644 27.2125V25.696H192.824V36.3115C192.824 37.2719 192.622 38.125 192.217 38.8706C191.813 39.6288 191.225 40.2228 190.454 40.6524C189.696 41.0821 188.786 41.297 187.725 41.297C186.309 41.297 185.134 40.9621 184.199 40.2923C183.264 39.6351 182.733 38.7379 182.606 37.6005H184.748C184.913 38.1439 185.26 38.5799 185.791 38.9085C186.334 39.2497 186.979 39.4203 187.725 39.4203C188.597 39.4203 189.298 39.1549 189.829 38.6241C190.372 38.0934 190.644 37.3225 190.644 36.3115V34.5675C190.277 35.0604 189.778 35.4774 189.146 35.8186C188.527 36.1472 187.819 36.3115 187.023 36.3115C186.113 36.3115 185.279 36.084 184.521 35.6291C183.775 35.1615 183.181 34.517 182.739 33.6955C182.309 32.8614 182.095 31.92 182.095 30.871C182.095 29.8221 182.309 28.8933 182.739 28.0845C183.181 27.2757 183.775 26.6501 184.521 26.2078C185.279 25.7529 186.113 25.5254 187.023 25.5254ZM190.644 30.909C190.644 30.1886 190.492 29.5631 190.189 29.0323C189.898 28.5015 189.513 28.0971 189.033 27.8191C188.552 27.5411 188.034 27.4021 187.478 27.4021C186.922 27.4021 186.404 27.5411 185.924 27.8191C185.444 28.0845 185.052 28.4826 184.748 29.0133C184.458 29.5315 184.312 30.1507 184.312 30.871C184.312 31.5914 184.458 32.2233 184.748 32.7667C185.052 33.3101 185.444 33.7271 185.924 34.0178C186.417 34.2958 186.935 34.4348 187.478 34.4348C188.034 34.4348 188.552 34.2958 189.033 34.0178C189.513 33.7398 189.898 33.3354 190.189 32.8046C190.492 32.2612 190.644 31.6293 190.644 30.909ZM199.866 29.5252C199.866 28.2361 200.163 27.0798 200.757 26.0562C201.364 25.0325 202.179 24.2364 203.202 23.6677C204.239 23.0864 205.37 22.7957 206.595 22.7957C207.998 22.7957 209.243 23.1432 210.33 23.8383C211.429 24.5207 212.225 25.4938 212.718 26.7576H210.121C209.78 26.0625 209.306 25.5444 208.7 25.2031C208.093 24.8619 207.392 24.6913 206.595 24.6913C205.723 24.6913 204.946 24.8872 204.264 25.279C203.581 25.6707 203.044 26.2331 202.653 26.9661C202.273 27.699 202.084 28.5521 202.084 29.5252C202.084 30.4982 202.273 31.3513 202.653 32.0842C203.044 32.8172 203.581 33.3859 204.264 33.7903C204.946 34.1821 205.723 34.3779 206.595 34.3779C207.392 34.3779 208.093 34.2073 208.7 33.8661C209.306 33.5249 209.78 33.0068 210.121 32.3117H212.718C212.225 33.5755 211.429 34.5485 210.33 35.231C209.243 35.9134 207.998 36.2546 206.595 36.2546C205.357 36.2546 204.226 35.9703 203.202 35.4016C202.179 34.8203 201.364 34.0178 200.757 32.9941C200.163 31.9705 199.866 30.8142 199.866 29.5252ZM217.409 22.1133V36.1409H215.248V22.1133H217.409ZM221.345 24.3122C220.954 24.3122 220.625 24.1795 220.36 23.9141C220.094 23.6487 219.962 23.3202 219.962 22.9284C219.962 22.5366 220.094 22.2081 220.36 21.9427C220.625 21.6773 220.954 21.5446 221.345 21.5446C221.725 21.5446 222.047 21.6773 222.312 21.9427C222.578 22.2081 222.71 22.5366 222.71 22.9284C222.71 23.3202 222.578 23.6487 222.312 23.9141C222.047 24.1795 221.725 24.3122 221.345 24.3122ZM222.407 25.696V36.1409H220.246V25.696H222.407ZM234.817 30.6625C234.817 31.0543 234.792 31.4081 234.741 31.7241H226.761C226.824 32.5581 227.134 33.2279 227.69 33.7334C228.246 34.2389 228.928 34.4917 229.737 34.4917C230.899 34.4917 231.721 34.0051 232.201 33.0321H234.533C234.217 33.9925 233.642 34.7823 232.808 35.4016C231.986 36.0082 230.963 36.3115 229.737 36.3115C228.738 36.3115 227.841 36.0903 227.045 35.648C226.262 35.1931 225.642 34.5612 225.187 33.7524C224.745 32.931 224.524 31.9831 224.524 30.909C224.524 29.8348 224.739 28.8933 225.168 28.0845C225.611 27.2631 226.224 26.6312 227.007 26.1889C227.803 25.7466 228.713 25.5254 229.737 25.5254C230.723 25.5254 231.601 25.7402 232.372 26.1699C233.143 26.5996 233.743 27.2062 234.173 27.9897C234.602 28.7606 234.817 29.6515 234.817 30.6625ZM232.561 29.9801C232.549 29.1839 232.264 28.5458 231.708 28.0655C231.152 27.5853 230.463 27.3452 229.642 27.3452C228.896 27.3452 228.258 27.5853 227.727 28.0655C227.197 28.5331 226.881 29.1713 226.78 29.9801H232.561ZM242.214 25.5254C243.035 25.5254 243.768 25.696 244.412 26.0372C245.07 26.3784 245.581 26.8839 245.948 27.5537C246.314 28.2235 246.498 29.0323 246.498 29.9801V36.1409H244.356V30.3024C244.356 29.3672 244.122 28.6532 243.654 28.1603C243.187 27.6548 242.548 27.4021 241.74 27.4021C240.931 27.4021 240.286 27.6548 239.806 28.1603C239.339 28.6532 239.105 29.3672 239.105 30.3024V36.1409H236.944V25.696H239.105V26.8902C239.459 26.4606 239.907 26.1257 240.451 25.8856C241.007 25.6455 241.594 25.5254 242.214 25.5254ZM251.775 27.4589V33.2406C251.775 33.6323 251.864 33.9167 252.041 34.0936C252.23 34.2579 252.546 34.34 252.989 34.34H254.315V36.1409H252.609C251.636 36.1409 250.891 35.9134 250.373 35.4584C249.854 35.0035 249.595 34.2642 249.595 33.2406V27.4589H248.363V25.696H249.595V23.099H251.775V25.696H254.315V27.4589H251.775ZM260.098 36.3115C259.277 36.3115 258.538 36.1661 257.881 35.8755C257.236 35.5722 256.724 35.1678 256.345 34.6623C255.966 34.1442 255.764 33.5691 255.738 32.9373H257.975C258.013 33.3796 258.222 33.7524 258.601 34.0557C258.993 34.3464 259.479 34.4917 260.061 34.4917C260.667 34.4917 261.135 34.3779 261.463 34.1505C261.804 33.9104 261.975 33.6071 261.975 33.2406C261.975 32.8488 261.786 32.5581 261.406 32.3686C261.04 32.179 260.452 31.9705 259.643 31.743C258.86 31.5282 258.222 31.3197 257.729 31.1175C257.236 30.9153 256.806 30.6057 256.44 30.1886C256.086 29.7716 255.909 29.2219 255.909 28.5394C255.909 27.9834 256.073 27.4779 256.402 27.0229C256.731 26.5554 257.198 26.1889 257.805 25.9235C258.424 25.6581 259.132 25.5254 259.928 25.5254C261.116 25.5254 262.07 25.8287 262.79 26.4353C263.523 27.0293 263.915 27.8444 263.965 28.8806H261.804C261.767 28.4131 261.577 28.0403 261.236 27.7622C260.895 27.4842 260.433 27.3452 259.852 27.3452C259.283 27.3452 258.847 27.4526 258.544 27.6675C258.241 27.8823 258.089 28.1666 258.089 28.5205C258.089 28.7985 258.19 29.0323 258.392 29.2219C258.595 29.4114 258.841 29.5631 259.132 29.6768C259.422 29.7779 259.852 29.9106 260.421 30.0749C261.179 30.2771 261.798 30.4856 262.278 30.7004C262.771 30.9026 263.195 31.2059 263.548 31.6103C263.902 32.0147 264.086 32.5518 264.098 33.2216C264.098 33.8156 263.934 34.3464 263.605 34.8139C263.277 35.2815 262.809 35.648 262.203 35.9134C261.609 36.1788 260.907 36.3115 260.098 36.3115Z" fill="white"/>
<path d="M81.9769 73.0124L47.4917 91.7359C45.2461 92.9551 42.5803 91.0594 42.9948 88.5381L49.2713 50.3553C49.7546 47.4154 53.7198 46.8157 55.0508 49.4813L62.0192 63.4376C62.4757 64.352 63.3571 64.9794 64.3705 65.1114L80.9082 67.2667C83.861 67.6516 84.5939 71.5915 81.9769 73.0124Z" fill="#337DD3" stroke="white" stroke-width="3.07183"/>
<defs>
<filter id="filter0_d_1_287" x="1.90735e-06" y="0" width="289.724" height="115.341" filterUnits="userSpaceOnUse" color-interpolation-filters="sRGB">
<feFlood flood-opacity="0" result="BackgroundImageFix"/>
<feColorMatrix in="SourceAlpha" type="matrix" values="0 0 0 0 0 0 0 0 0 0 0 0 0 0 0 0 0 0 127 0" result="hardAlpha"/>
<feMorphology radius="17.407" operator="erode" in="SourceAlpha" result="effect1_dropShadow_1_287"/>
<feOffset dx="-33.1733" dy="33.7901"/>
<feGaussianBlur stdDeviation="20.4789"/>
<feComposite in2="hardAlpha" operator="out"/>
<feColorMatrix type="matrix" values="0 0 0 0 0 0 0 0 0 0 0 0 0 0 0 0 0 0 0.15 0"/>
<feBlend mode="normal" in2="BackgroundImageFix" result="effect1_dropShadow_1_287"/>
<feBlend mode="normal" in="SourceGraphic" in2="effect1_dropShadow_1_287" result="shape"/>
</filter>
</defs>
</svg>
