<svg width="363" height="142" viewBox="0 0 363 142" fill="none" xmlns="http://www.w3.org/2000/svg">
<g filter="url(#filter0_d_78_360)">
<rect x="34.5931" y="39.9153" width="279.407" height="51.4463" rx="25.7232" fill="#FA6300"/>
<rect x="35.9444" y="41.2666" width="276.704" height="48.7438" rx="24.3719" stroke="white" stroke-width="2.70257"/>
</g>
<path d="M62.5457 71.7097C61.6588 71.7097 60.8606 71.5577 60.1511 71.2536C59.4416 70.9368 58.8841 70.4934 58.4787 69.9233C58.0732 69.3531 57.8705 68.688 57.8705 67.9278H60.1891C60.2398 68.4979 60.4615 68.9667 60.8542 69.3341C61.2597 69.7015 61.8235 69.8852 62.5457 69.8852C63.2932 69.8852 63.876 69.7079 64.2941 69.3531C64.7122 68.9857 64.9212 68.5169 64.9212 67.9468C64.9212 67.5033 64.7882 67.1423 64.5221 66.8635C64.2687 66.5848 63.9457 66.3694 63.5529 66.2174C63.1728 66.0653 62.6407 65.9006 61.9565 65.7232C61.095 65.4952 60.3918 65.2671 59.847 65.0391C59.3149 64.7983 58.8588 64.4309 58.4787 63.9368C58.0986 63.4427 57.9085 62.7839 57.9085 61.9603C57.9085 61.2001 58.0986 60.535 58.4787 59.9648C58.8588 59.3947 59.3909 58.9576 60.0751 58.6535C60.7592 58.3495 61.5511 58.1974 62.4506 58.1974C63.7303 58.1974 64.7755 58.5205 65.5864 59.1666C66.4099 59.8001 66.866 60.6743 66.9547 61.7893H64.5601C64.5221 61.3078 64.2941 60.8961 63.876 60.554C63.4579 60.2119 62.9067 60.0409 62.2226 60.0409C61.6018 60.0409 61.095 60.1992 60.7022 60.516C60.3094 60.8327 60.1131 61.2888 60.1131 61.8843C60.1131 62.2897 60.2334 62.6255 60.4741 62.8916C60.7275 63.1449 61.0443 63.3477 61.4244 63.4997C61.8045 63.6517 62.3239 63.8164 62.9828 63.9938C63.857 64.2345 64.5665 64.4753 65.1113 64.716C65.6687 64.9567 66.1375 65.3305 66.5176 65.8373C66.9104 66.3314 67.1068 66.9965 67.1068 67.8328C67.1068 68.5042 66.923 69.1377 66.5556 69.7332C66.2009 70.3287 65.6751 70.8101 64.9782 71.1776C64.2941 71.5323 63.4832 71.7097 62.5457 71.7097ZM79.2605 66.0843C79.2605 66.4771 79.2352 66.8318 79.1845 67.1486H71.1835C71.2469 67.9848 71.5573 68.6563 72.1148 69.1631C72.6722 69.6699 73.3564 69.9233 74.1673 69.9233C75.3329 69.9233 76.1564 69.4355 76.6379 68.4599H78.9754C78.6587 69.4228 78.0822 70.2147 77.246 70.8355C76.4225 71.4436 75.3962 71.7477 74.1673 71.7477C73.1664 71.7477 72.2668 71.526 71.4686 71.0825C70.6831 70.6264 70.0623 69.9929 69.6062 69.1821C69.1627 68.3585 68.941 67.4083 68.941 66.3314C68.941 65.2545 69.1564 64.3106 69.5872 63.4997C70.0306 62.6762 70.6451 62.0427 71.4306 61.5992C72.2288 61.1558 73.141 60.9341 74.1673 60.9341C75.1555 60.9341 76.0361 61.1495 76.8089 61.5802C77.5818 62.011 78.1836 62.6192 78.6143 63.4047C79.0451 64.1775 79.2605 65.0707 79.2605 66.0843ZM76.999 65.4002C76.9863 64.602 76.7012 63.9621 76.1437 63.4807C75.5863 62.9992 74.8958 62.7585 74.0722 62.7585C73.3247 62.7585 72.6849 62.9992 72.1528 63.4807C71.6206 63.9495 71.3039 64.5893 71.2025 65.4002H76.999ZM86.6759 60.9341C87.4994 60.9341 88.2342 61.1051 88.8804 61.4472C89.5392 61.7893 90.0523 62.2961 90.4198 62.9676C90.7872 63.6391 90.9709 64.4499 90.9709 65.4002V71.5767H88.8234V65.7232C88.8234 64.7857 88.589 64.0698 88.1202 63.5757C87.6514 63.0689 87.0116 62.8155 86.2007 62.8155C85.3899 62.8155 84.7437 63.0689 84.2623 63.5757C83.7935 64.0698 83.5591 64.7857 83.5591 65.7232V71.5767H81.3926V61.1051H83.5591V62.3024C83.9139 61.8716 84.3636 61.5359 84.9084 61.2952C85.4659 61.0544 86.055 60.9341 86.6759 60.9341ZM93.0123 66.2934C93.0123 65.2418 93.2277 64.3106 93.6584 63.4997C94.1019 62.6888 94.6973 62.0617 95.4449 61.6182C96.205 61.1621 97.0476 60.9341 97.9725 60.9341C98.6566 60.9341 99.3281 61.0861 99.987 61.3902C100.658 61.6816 101.191 62.0744 101.583 62.5685V57.5132H103.769V71.5767H101.583V69.9993C101.229 70.5061 100.734 70.9242 100.101 71.2536C99.4802 71.583 98.7643 71.7477 97.9535 71.7477C97.0412 71.7477 96.205 71.5196 95.4449 71.0635C94.6973 70.5948 94.1019 69.9486 93.6584 69.1251C93.2277 68.2889 93.0123 67.345 93.0123 66.2934ZM101.583 66.3314C101.583 65.6092 101.431 64.9821 101.127 64.4499C100.836 63.9178 100.449 63.5124 99.968 63.2336C99.4865 62.9549 98.967 62.8155 98.4096 62.8155C97.8521 62.8155 97.3326 62.9549 96.8512 63.2336C96.3697 63.4997 95.977 63.8988 95.6729 64.4309C95.3815 64.9504 95.2358 65.5712 95.2358 66.2934C95.2358 67.0156 95.3815 67.649 95.6729 68.1938C95.977 68.7386 96.3697 69.1567 96.8512 69.4481C97.3453 69.7269 97.8648 69.8662 98.4096 69.8662C98.967 69.8662 99.4865 69.7269 99.968 69.4481C100.449 69.1694 100.836 68.764 101.127 68.2318C101.431 67.687 101.583 67.0536 101.583 66.3314ZM113.718 60.1169V63.9938H118.279V65.7612H113.718V69.8092H118.849V71.5767H111.551V58.3495H118.849V60.1169H113.718ZM134.194 60.9341C135.017 60.9341 135.752 61.1051 136.398 61.4472C137.057 61.7893 137.57 62.2961 137.938 62.9676C138.318 63.6391 138.508 64.4499 138.508 65.4002V71.5767H136.36V65.7232C136.36 64.7857 136.126 64.0698 135.657 63.5757C135.188 63.0689 134.548 62.8155 133.738 62.8155C132.927 62.8155 132.28 63.0689 131.799 63.5757C131.33 64.0698 131.096 64.7857 131.096 65.7232V71.5767H128.948V65.7232C128.948 64.7857 128.714 64.0698 128.245 63.5757C127.776 63.0689 127.137 62.8155 126.326 62.8155C125.515 62.8155 124.869 63.0689 124.387 63.5757C123.918 64.0698 123.684 64.7857 123.684 65.7232V71.5767H121.518V61.1051H123.684V62.3024C124.039 61.8716 124.489 61.5359 125.033 61.2952C125.578 61.0544 126.161 60.9341 126.782 60.9341C127.618 60.9341 128.366 61.1115 129.024 61.4662C129.683 61.821 130.19 62.3341 130.545 63.0056C130.861 62.3721 131.356 61.8716 132.027 61.5042C132.699 61.1241 133.421 60.9341 134.194 60.9341ZM140.542 66.2934C140.542 65.2418 140.758 64.3106 141.189 63.4997C141.632 62.6888 142.227 62.0617 142.975 61.6182C143.735 61.1621 144.571 60.9341 145.484 60.9341C146.307 60.9341 147.023 61.0988 147.631 61.4282C148.252 61.7449 148.746 62.144 149.113 62.6255V61.1051H151.299V71.5767H149.113V70.0183C148.746 70.5124 148.246 70.9242 147.612 71.2536C146.979 71.583 146.256 71.7477 145.446 71.7477C144.546 71.7477 143.722 71.5196 142.975 71.0635C142.227 70.5948 141.632 69.9486 141.189 69.1251C140.758 68.2889 140.542 67.345 140.542 66.2934ZM149.113 66.3314C149.113 65.6092 148.961 64.9821 148.657 64.4499C148.366 63.9178 147.979 63.5124 147.498 63.2336C147.017 62.9549 146.497 62.8155 145.94 62.8155C145.382 62.8155 144.863 62.9549 144.381 63.2336C143.9 63.4997 143.507 63.8988 143.203 64.4309C142.912 64.9504 142.766 65.5712 142.766 66.2934C142.766 67.0156 142.912 67.649 143.203 68.1938C143.507 68.7386 143.9 69.1567 144.381 69.4481C144.875 69.7269 145.395 69.8662 145.94 69.8662C146.497 69.8662 147.017 69.7269 147.498 69.4481C147.979 69.1694 148.366 68.764 148.657 68.2318C148.961 67.687 149.113 67.0536 149.113 66.3314ZM155.247 59.7178C154.854 59.7178 154.525 59.5848 154.259 59.3187C153.993 59.0526 153.86 58.7232 153.86 58.3304C153.86 57.9377 153.993 57.6083 154.259 57.3422C154.525 57.0761 154.854 56.9431 155.247 56.9431C155.627 56.9431 155.95 57.0761 156.216 57.3422C156.482 57.6083 156.615 57.9377 156.615 58.3304C156.615 58.7232 156.482 59.0526 156.216 59.3187C155.95 59.5848 155.627 59.7178 155.247 59.7178ZM156.311 61.1051V71.5767H154.145V61.1051H156.311ZM161.322 57.5132V71.5767H159.156V57.5132H161.322ZM179.309 71.5767L177.674 69.9423C177.041 70.5758 176.35 71.0509 175.603 71.3676C174.855 71.6717 174.019 71.8237 173.094 71.8237C172.157 71.8237 171.327 71.659 170.605 71.3296C169.882 71.0002 169.325 70.5314 168.932 69.9233C168.54 69.3024 168.343 68.5866 168.343 67.7757C168.343 66.8635 168.603 66.0527 169.122 65.3431C169.642 64.621 170.415 64.0508 171.441 63.6327C171.073 63.1893 170.814 62.7775 170.662 62.3974C170.51 62.0047 170.434 61.5739 170.434 61.1051C170.434 60.5223 170.579 60.0029 170.871 59.5467C171.175 59.0906 171.606 58.7295 172.163 58.4635C172.721 58.1974 173.367 58.0644 174.102 58.0644C174.849 58.0644 175.483 58.2101 176.002 58.5015C176.534 58.7802 176.927 59.1666 177.18 59.6608C177.446 60.1549 177.554 60.706 177.503 61.3142H175.337C175.349 60.8454 175.235 60.4843 174.995 60.2309C174.754 59.9648 174.425 59.8318 174.006 59.8318C173.588 59.8318 173.246 59.9585 172.98 60.2119C172.727 60.4526 172.6 60.7504 172.6 61.1051C172.6 61.4472 172.695 61.7893 172.885 62.1314C173.088 62.4608 173.436 62.8916 173.93 63.4237L177.427 66.9015L178.777 64.678H181.114L179.404 67.6047L178.929 68.3839L182.14 71.5767H179.309ZM173.094 69.9803C174.285 69.9803 175.337 69.4925 176.249 68.5169L172.752 65.0011C171.257 65.5965 170.51 66.4961 170.51 67.6997C170.51 68.3459 170.75 68.8907 171.232 69.3341C171.713 69.7649 172.334 69.9803 173.094 69.9803ZM201.174 60.9341C201.997 60.9341 202.732 61.1051 203.378 61.4472C204.037 61.7893 204.55 62.2961 204.918 62.9676C205.298 63.6391 205.488 64.4499 205.488 65.4002V71.5767H203.34V65.7232C203.34 64.7857 203.106 64.0698 202.637 63.5757C202.168 63.0689 201.528 62.8155 200.718 62.8155C199.907 62.8155 199.261 63.0689 198.779 63.5757C198.31 64.0698 198.076 64.7857 198.076 65.7232V71.5767H195.928V65.7232C195.928 64.7857 195.694 64.0698 195.225 63.5757C194.757 63.0689 194.117 62.8155 193.306 62.8155C192.495 62.8155 191.849 63.0689 191.367 63.5757C190.899 64.0698 190.664 64.7857 190.664 65.7232V71.5767H188.498V61.1051H190.664V62.3024C191.019 61.8716 191.469 61.5359 192.014 61.2952C192.558 61.0544 193.141 60.9341 193.762 60.9341C194.598 60.9341 195.346 61.1115 196.004 61.4662C196.663 61.821 197.17 62.3341 197.525 63.0056C197.842 62.3721 198.336 61.8716 199.007 61.5042C199.679 61.1241 200.401 60.9341 201.174 60.9341ZM207.522 66.2934C207.522 65.2418 207.738 64.3106 208.169 63.4997C208.612 62.6888 209.208 62.0617 209.955 61.6182C210.715 61.1621 211.551 60.9341 212.464 60.9341C213.287 60.9341 214.003 61.0988 214.611 61.4282C215.232 61.7449 215.726 62.144 216.094 62.6255V61.1051H218.279V71.5767H216.094V70.0183C215.726 70.5124 215.226 70.9242 214.592 71.2536C213.959 71.583 213.237 71.7477 212.426 71.7477C211.526 71.7477 210.703 71.5196 209.955 71.0635C209.208 70.5948 208.612 69.9486 208.169 69.1251C207.738 68.2889 207.522 67.345 207.522 66.2934ZM216.094 66.3314C216.094 65.6092 215.942 64.9821 215.637 64.4499C215.346 63.9178 214.96 63.5124 214.478 63.2336C213.997 62.9549 213.477 62.8155 212.92 62.8155C212.362 62.8155 211.843 62.9549 211.361 63.2336C210.88 63.4997 210.487 63.8988 210.183 64.4309C209.892 64.9504 209.746 65.5712 209.746 66.2934C209.746 67.0156 209.892 67.649 210.183 68.1938C210.487 68.7386 210.88 69.1567 211.361 69.4481C211.856 69.7269 212.375 69.8662 212.92 69.8662C213.477 69.8662 213.997 69.7269 214.478 69.4481C214.96 69.1694 215.346 68.764 215.637 68.2318C215.942 67.687 216.094 67.0536 216.094 66.3314ZM225.268 66.3504L230.095 71.5767H227.168L223.291 67.0726V71.5767H221.125V57.5132H223.291V65.6852L227.092 61.1051H230.095L225.268 66.3504ZM241.245 66.0843C241.245 66.4771 241.22 66.8318 241.169 67.1486H233.168C233.231 67.9848 233.542 68.6563 234.099 69.1631C234.657 69.6699 235.341 69.9233 236.152 69.9233C237.317 69.9233 238.141 69.4355 238.622 68.4599H240.96C240.643 69.4228 240.067 70.2147 239.231 70.8355C238.407 71.4436 237.381 71.7477 236.152 71.7477C235.151 71.7477 234.251 71.526 233.453 71.0825C232.668 70.6264 232.047 69.9929 231.591 69.1821C231.147 68.3585 230.926 67.4083 230.926 66.3314C230.926 65.2545 231.141 64.3106 231.572 63.4997C232.015 62.6762 232.63 62.0427 233.415 61.5992C234.213 61.1558 235.126 60.9341 236.152 60.9341C237.14 60.9341 238.021 61.1495 238.794 61.5802C239.566 62.011 240.168 62.6192 240.599 63.4047C241.03 64.1775 241.245 65.0707 241.245 66.0843ZM238.984 65.4002C238.971 64.602 238.686 63.9621 238.128 63.4807C237.571 62.9992 236.88 62.7585 236.057 62.7585C235.309 62.7585 234.67 62.9992 234.137 63.4807C233.605 63.9495 233.289 64.5893 233.187 65.4002H238.984ZM247.592 66.3314C247.592 65.2545 247.807 64.3106 248.238 63.4997C248.681 62.6762 249.289 62.0427 250.062 61.5992C250.835 61.1558 251.722 60.9341 252.723 60.9341C253.99 60.9341 255.035 61.2382 255.859 61.8463C256.695 62.4418 257.259 63.297 257.55 64.4119H255.213C255.023 63.8925 254.718 63.487 254.3 63.1956C253.882 62.9042 253.356 62.7585 252.723 62.7585C251.836 62.7585 251.127 63.0753 250.594 63.7088C250.075 64.3296 249.815 65.2038 249.815 66.3314C249.815 67.459 250.075 68.3395 250.594 68.973C251.127 69.6065 251.836 69.9233 252.723 69.9233C253.977 69.9233 254.807 69.3721 255.213 68.2699H257.55C257.246 69.3341 256.676 70.183 255.84 70.8165C255.004 71.4373 253.965 71.7477 252.723 71.7477C251.722 71.7477 250.835 71.526 250.062 71.0825C249.289 70.6264 248.681 69.9929 248.238 69.1821C247.807 68.3585 247.592 67.4083 247.592 66.3314ZM258.987 66.2934C258.987 65.2418 259.202 64.3106 259.633 63.4997C260.077 62.6888 260.672 62.0617 261.42 61.6182C262.18 61.1621 263.016 60.9341 263.928 60.9341C264.752 60.9341 265.468 61.0988 266.076 61.4282C266.697 61.7449 267.191 62.144 267.558 62.6255V61.1051H269.744V71.5767H267.558V70.0183C267.191 70.5124 266.69 70.9242 266.057 71.2536C265.423 71.583 264.701 71.7477 263.89 71.7477C262.991 71.7477 262.167 71.5196 261.42 71.0635C260.672 70.5948 260.077 69.9486 259.633 69.1251C259.202 68.2889 258.987 67.345 258.987 66.2934ZM267.558 66.3314C267.558 65.6092 267.406 64.9821 267.102 64.4499C266.811 63.9178 266.424 63.5124 265.943 63.2336C265.461 62.9549 264.942 62.8155 264.384 62.8155C263.827 62.8155 263.307 62.9549 262.826 63.2336C262.345 63.4997 261.952 63.8988 261.648 64.4309C261.356 64.9504 261.211 65.5712 261.211 66.2934C261.211 67.0156 261.356 67.649 261.648 68.1938C261.952 68.7386 262.345 69.1567 262.826 69.4481C263.32 69.7269 263.84 69.8662 264.384 69.8662C264.942 69.8662 265.461 69.7269 265.943 69.4481C266.424 69.1694 266.811 68.764 267.102 68.2318C267.406 67.687 267.558 67.0536 267.558 66.3314ZM274.756 57.5132V71.5767H272.589V57.5132H274.756ZM279.767 57.5132V71.5767H277.6V57.5132H279.767ZM286.412 71.7477C285.589 71.7477 284.848 71.602 284.189 71.3106C283.543 71.0065 283.029 70.6011 282.649 70.0943C282.269 69.5748 282.067 68.9984 282.041 68.3649H284.284C284.322 68.8083 284.531 69.1821 284.911 69.4862C285.304 69.7776 285.791 69.9233 286.374 69.9233C286.982 69.9233 287.451 69.8092 287.781 69.5812C288.123 69.3405 288.294 69.0364 288.294 68.669C288.294 68.2762 288.104 67.9848 287.724 67.7947C287.356 67.6047 286.767 67.3956 285.956 67.1676C285.171 66.9522 284.531 66.7432 284.037 66.5404C283.543 66.3377 283.112 66.0273 282.744 65.6092C282.39 65.1911 282.212 64.64 282.212 63.9558C282.212 63.3983 282.377 62.8916 282.706 62.4354C283.036 61.9667 283.505 61.5992 284.113 61.3332C284.733 61.0671 285.443 60.9341 286.241 60.9341C287.432 60.9341 288.389 61.2382 289.111 61.8463C289.846 62.4418 290.238 63.259 290.289 64.2979H288.123C288.085 63.8291 287.895 63.4554 287.553 63.1766C287.21 62.8979 286.748 62.7585 286.165 62.7585C285.595 62.7585 285.158 62.8662 284.854 63.0816C284.55 63.297 284.398 63.5821 284.398 63.9368C284.398 64.2155 284.499 64.4499 284.702 64.64C284.905 64.83 285.152 64.9821 285.443 65.0961C285.734 65.1974 286.165 65.3305 286.735 65.4952C287.495 65.6979 288.116 65.907 288.598 66.1223C289.092 66.3251 289.516 66.6291 289.871 67.0346C290.226 67.44 290.41 67.9785 290.422 68.6499C290.422 69.2454 290.257 69.7776 289.928 70.2463C289.599 70.7151 289.13 71.0825 288.522 71.3486C287.926 71.6147 287.223 71.7477 286.412 71.7477Z" fill="white"/>
<path d="M52.1302 31.5074L21.7904 15.0346C19.8147 13.9619 17.4694 15.6297 17.8341 17.848L23.3561 51.441C23.7813 54.0275 27.2699 54.5551 28.4408 52.2099L34.5716 39.9312C34.9733 39.1268 35.7487 38.5748 36.6403 38.4586L51.19 36.5624C53.7878 36.2238 54.4326 32.7575 52.1302 31.5074Z" fill="#FA6300" stroke="white" stroke-width="2.70257"/>
<defs>
<filter id="filter0_d_78_360" x="34.5931" y="39.9153" width="328.053" height="101.894" filterUnits="userSpaceOnUse" color-interpolation-filters="sRGB">
<feFlood flood-opacity="0" result="BackgroundImageFix"/>
<feColorMatrix in="SourceAlpha" type="matrix" values="0 0 0 0 0 0 0 0 0 0 0 0 0 0 0 0 0 0 127 0" result="hardAlpha"/>
<feMorphology radius="15.3146" operator="erode" in="SourceAlpha" result="effect1_dropShadow_78_360"/>
<feOffset dx="27.9266" dy="29.7283"/>
<feGaussianBlur stdDeviation="18.0172"/>
<feComposite in2="hardAlpha" operator="out"/>
<feColorMatrix type="matrix" values="0 0 0 0 0 0 0 0 0 0 0 0 0 0 0 0 0 0 0.15 0"/>
<feBlend mode="normal" in2="BackgroundImageFix" result="effect1_dropShadow_78_360"/>
<feBlend mode="normal" in="SourceGraphic" in2="effect1_dropShadow_78_360" result="shape"/>
</filter>
</defs>
</svg>
