<svg width="23" height="23" viewBox="0 0 23 23" fill="none" xmlns="http://www.w3.org/2000/svg">
<path opacity="0.4" d="M16.3751 7.25803C16.3097 7.24868 16.2443 7.24868 16.1789 7.25803C14.7311 7.21132 13.5821 6.02499 13.5821 4.56776C13.5821 3.08252 14.7871 1.86816 16.2817 1.86816C17.7669 1.86816 18.9813 3.07318 18.9813 4.56776C18.9719 6.02499 17.823 7.21132 16.3751 7.25803Z" fill="#696969"/>
<path opacity="0.4" d="M19.4198 13.7321C18.3736 14.4326 16.907 14.6942 15.5526 14.5167C15.9075 13.7507 16.0944 12.9007 16.1037 12.0039C16.1037 11.0698 15.8982 10.1824 15.5059 9.4071C16.8884 9.22028 18.3549 9.48182 19.4105 10.1824C20.8864 11.1539 20.8864 12.7512 19.4198 13.7321Z" fill="#696969"/>
<path opacity="0.4" d="M6.01634 7.25803C6.08173 7.24868 6.14712 7.24868 6.21251 7.25803C7.66039 7.21132 8.80935 6.02499 8.80935 4.56776C8.80935 3.08252 7.60434 1.86816 6.10976 1.86816C4.62451 1.86816 3.41016 3.07318 3.41016 4.56776C3.4195 6.02499 4.56846 7.21132 6.01634 7.25803Z" fill="#696969"/>
<path opacity="0.4" d="M6.11819 12.0032C6.11819 12.9092 6.31435 13.7686 6.66932 14.544C5.35221 14.6841 3.97906 14.4038 2.97021 13.7406C1.4943 12.7598 1.4943 11.1624 2.97021 10.1816C3.96972 9.50904 5.38023 9.23816 6.70668 9.38762C6.32369 10.1723 6.11819 11.0597 6.11819 12.0032Z" fill="#696969"/>
<path d="M11.3211 14.8246C11.2464 14.8153 11.1623 14.8153 11.0783 14.8246C9.35948 14.7686 7.98633 13.3581 7.98633 11.6206C7.98633 9.84577 9.41553 8.40723 11.1997 8.40723C12.9745 8.40723 14.4131 9.84577 14.4131 11.6206C14.4131 13.3581 13.0492 14.7686 11.3211 14.8246Z" fill="#696969"/>
<path d="M8.2864 16.7578C6.87589 17.7013 6.87589 19.2519 8.2864 20.186C9.89309 21.2603 12.5273 21.2603 14.134 20.186C15.5445 19.2426 15.5445 17.6919 14.134 16.7578C12.5366 15.6836 9.90243 15.6836 8.2864 16.7578Z" fill="#696969"/>
</svg>
