<svg width="22" height="22" viewBox="0 0 22 22" fill="none" xmlns="http://www.w3.org/2000/svg">
<path d="M15.5836 12.0218V14.9901C15.5836 18.9478 14.0005 20.5308 10.0428 20.5308H6.28297C2.32527 20.5308 0.742188 18.9478 0.742188 14.9901V11.2302C0.742188 7.27254 2.32527 5.68945 6.28297 5.68945H9.25125" stroke="#B1B1B1" stroke-width="1.48414" stroke-linecap="round" stroke-linejoin="round"/>
<path d="M15.5833 12.0218H12.4171C10.0425 12.0218 9.25098 11.2302 9.25098 8.85562V5.68945L15.5833 12.0218Z" stroke="#B1B1B1" stroke-width="1.48414" stroke-linecap="round" stroke-linejoin="round"/>
<path d="M10.2402 0.742188H14.1979" stroke="#B1B1B1" stroke-width="1.48414" stroke-linecap="round" stroke-linejoin="round"/>
<path d="M5.68921 3.71047C5.68921 2.06802 7.01504 0.742188 8.65749 0.742188H11.2498" stroke="#B1B1B1" stroke-width="1.48414" stroke-linecap="round" stroke-linejoin="round"/>
<path d="M20.531 6.67871V12.8033C20.531 14.3369 19.2843 15.5835 17.7507 15.5835" stroke="#B1B1B1" stroke-width="1.48414" stroke-linecap="round" stroke-linejoin="round"/>
<path d="M20.5303 6.67874H17.562C15.3358 6.67874 14.5938 5.93667 14.5938 3.71047V0.742188L20.5303 6.67874Z" stroke="#B1B1B1" stroke-width="1.48414" stroke-linecap="round" stroke-linejoin="round"/>
</svg>
