<svg width="25" height="25" viewBox="0 0 25 25" fill="none" xmlns="http://www.w3.org/2000/svg">
<path opacity="0.4" d="M10.1912 2.85384L3.17835 8.47021C2.38902 9.09762 1.88304 10.4233 2.05508 11.415L3.40099 19.4702C3.64386 20.9072 5.02012 22.071 6.47734 22.071H17.8113C19.2584 22.071 20.6448 20.8971 20.8877 19.4702L22.2336 11.415C22.3955 10.4233 21.8895 9.09762 21.1103 8.47021L14.0974 2.86394C13.0146 1.99365 11.2639 1.99367 10.1912 2.85384Z" fill="#696969"/>
<path d="M12.1432 15.6858C13.5404 15.6858 14.6731 14.5531 14.6731 13.1559C14.6731 11.7587 13.5404 10.626 12.1432 10.626C10.746 10.626 9.61328 11.7587 9.61328 13.1559C9.61328 14.5531 10.746 15.6858 12.1432 15.6858Z" fill="#696969"/>
</svg>
