<svg width="22" height="22" viewBox="0 0 22 22" fill="none" xmlns="http://www.w3.org/2000/svg">
<path d="M4.89746 17.2558C4.3582 17.2558 3.8543 17.0702 3.49184 16.7254C3.03214 16.2922 2.81113 15.638 2.8907 14.9308L3.21779 12.0665C3.27967 11.5273 3.60677 10.8112 3.9869 10.4222L11.2448 2.73994C13.0571 0.821577 14.949 0.768535 16.8673 2.58081C18.7857 4.39308 18.8387 6.28492 17.0264 8.20328L9.7685 15.8856C9.39721 16.2834 8.70766 16.6547 8.1684 16.7431L5.3218 17.2293C5.17151 17.2381 5.03891 17.2558 4.89746 17.2558ZM14.0826 2.57197C13.4019 2.57197 12.8096 2.99631 12.2084 3.63281L4.9505 11.3239C4.7737 11.5096 4.57037 11.9516 4.53501 12.208L4.20791 15.0722C4.17255 15.364 4.24327 15.6027 4.4024 15.753C4.56153 15.9032 4.80022 15.9563 5.09195 15.9121L7.93855 15.4259C8.19492 15.3817 8.61925 15.1518 8.79606 14.9662L16.054 7.28388C17.1502 6.11695 17.548 5.03843 15.9479 3.53557C15.2407 2.85486 14.6307 2.57197 14.0826 2.57197Z" fill="#292D32"/>
<path d="M15.3291 9.67989C15.3115 9.67989 15.2849 9.67989 15.2673 9.67989C12.5091 9.40584 10.2901 7.31067 9.8658 4.57016C9.81275 4.2077 10.0603 3.87177 10.4227 3.80989C10.7852 3.75685 11.1211 4.00438 11.183 4.36683C11.5189 6.5062 13.2517 8.15051 15.4087 8.36267C15.7712 8.39804 16.0364 8.72513 16.001 9.08758C15.9568 9.42352 15.6651 9.67989 15.3291 9.67989Z" fill="#292D32"/>
<path d="M18.5647 20.1117H2.65204C2.28959 20.1117 1.98901 19.8111 1.98901 19.4487C1.98901 19.0862 2.28959 18.7856 2.65204 18.7856H18.5647C18.9272 18.7856 19.2277 19.0862 19.2277 19.4487C19.2277 19.8111 18.9272 20.1117 18.5647 20.1117Z" fill="#292D32"/>
</svg>
