<svg width="28" height="28" viewBox="0 0 28 28" fill="none" xmlns="http://www.w3.org/2000/svg">
<path opacity="0.4" d="M19.7695 23.8399H8.14038C4.65164 23.8399 2.32581 22.0955 2.32581 18.0253V9.88489C2.32581 5.81468 4.65164 4.07031 8.14038 4.07031H19.7695C23.2583 4.07031 25.5841 5.81468 25.5841 9.88489V18.0253C25.5841 22.0955 23.2583 23.8399 19.7695 23.8399Z" fill="#292D32"/>
<path d="M13.955 14.9668C12.9782 14.9668 11.9897 14.6645 11.2338 14.0481L7.5939 11.1409C7.22177 10.8385 7.152 10.2919 7.45436 9.9198C7.75671 9.54766 8.30329 9.47789 8.67542 9.78025L12.3153 12.6875C13.1991 13.3969 14.6993 13.3969 15.5831 12.6875L19.223 9.78025C19.5952 9.47789 20.1534 9.53603 20.4441 9.9198C20.7465 10.2919 20.6883 10.8501 20.3046 11.1409L16.6646 14.0481C15.9204 14.6645 14.9319 14.9668 13.955 14.9668Z" fill="#292D32"/>
</svg>
