<svg width="30" height="30" viewBox="0 0 30 30" fill="none" xmlns="http://www.w3.org/2000/svg">
<path d="M10.3125 9.14062C10.3125 10.3838 10.8064 11.5761 11.6854 12.4552C12.5645 13.3343 13.7568 13.8281 15 13.8281C16.2432 13.8281 17.4355 13.3343 18.3146 12.4552C19.1936 11.5761 19.6875 10.3838 19.6875 9.14062C19.6875 7.89742 19.1936 6.70514 18.3146 5.82606C17.4355 4.94699 16.2432 4.45312 15 4.45312C13.7568 4.45312 12.5645 4.94699 11.6854 5.82606C10.8064 6.70514 10.3125 7.89742 10.3125 9.14062Z" stroke="#696969" stroke-width="1.875" stroke-linecap="round" stroke-linejoin="round"/>
<path d="M7.96875 25.5469V23.2031C7.96875 21.9599 8.46261 20.7676 9.34169 19.8886C10.2208 19.0095 11.413 18.5156 12.6562 18.5156H16.1719" stroke="#696969" stroke-width="1.875" stroke-linecap="round" stroke-linejoin="round"/>
<path d="M19.6875 26.7188L25.5469 20.8594" stroke="#696969" stroke-width="1.875" stroke-linecap="round" stroke-linejoin="round"/>
<path d="M25.5469 26.1328V20.8594H20.2734" stroke="#696969" stroke-width="1.875" stroke-linecap="round" stroke-linejoin="round"/>
</svg>
