<svg width="24" height="24" viewBox="0 0 24 24" fill="none" xmlns="http://www.w3.org/2000/svg">
<path d="M17.5155 18.3517H16.776C15.9976 18.3517 15.2581 18.6534 14.7132 19.1983L13.0492 20.8427C12.2903 21.592 11.0545 21.592 10.2956 20.8427L8.63166 19.1983C8.08675 18.6534 7.33752 18.3517 6.56882 18.3517H5.83904C4.22379 18.3517 2.91992 17.0576 2.91992 15.4618V4.84595C2.91992 3.25017 4.22379 1.95605 5.83904 1.95605H17.5155C19.1308 1.95605 20.4346 3.25017 20.4346 4.84595V15.4618C20.4346 17.0479 19.1308 18.3517 17.5155 18.3517Z" fill="#337DD3"/>
<path d="M11.6774 10.1291C12.9295 10.1291 13.9446 9.11405 13.9446 7.86192C13.9446 6.60979 12.9295 5.59473 11.6774 5.59473C10.4252 5.59473 9.41016 6.60979 9.41016 7.86192C9.41016 9.11405 10.4252 10.1291 11.6774 10.1291Z" fill="white"/>
<path d="M14.2849 14.6538C15.0731 14.6538 15.5304 13.7781 15.0926 13.1261C14.4309 12.1434 13.1465 11.4817 11.6772 11.4817C10.2079 11.4817 8.92348 12.1434 8.26182 13.1261C7.82395 13.7781 8.28129 14.6538 9.06945 14.6538H14.2849Z" fill="white"/>
</svg>
