<svg width="19" height="19" viewBox="0 0 19 19" fill="none" xmlns="http://www.w3.org/2000/svg">
<g clip-path="url(#clip0_1551_140)">
<path d="M2.375 1.1875C2.06006 1.1875 1.75801 1.31261 1.53531 1.53531C1.31261 1.75801 1.1875 2.06006 1.1875 2.375V16.625C1.1875 16.9399 1.31261 17.242 1.53531 17.4647C1.75801 17.6874 2.06006 17.8125 2.375 17.8125H16.625C16.9399 17.8125 17.242 17.6874 17.4647 17.4647C17.6874 17.242 17.8125 16.9399 17.8125 16.625V2.375C17.8125 2.06006 17.6874 1.75801 17.4647 1.53531C17.242 1.31261 16.9399 1.1875 16.625 1.1875H11.2812C10.9663 1.1875 10.6643 1.31261 10.4416 1.53531C10.2189 1.75801 10.0938 2.06006 10.0938 2.375V7.71875H12.4688C12.5863 7.71854 12.7013 7.75325 12.7992 7.81848C12.897 7.8837 12.9733 7.97651 13.0183 8.08514C13.0633 8.19376 13.0751 8.31331 13.0521 8.42863C13.0291 8.54394 12.9724 8.64983 12.8891 8.73287L9.92037 11.7016C9.86522 11.7569 9.7997 11.8008 9.72756 11.8307C9.65543 11.8607 9.5781 11.8761 9.5 11.8761C9.4219 11.8761 9.34457 11.8607 9.27244 11.8307C9.2003 11.8008 9.13478 11.7569 9.07963 11.7016L6.11088 8.73287C6.02762 8.64983 5.9709 8.54394 5.9479 8.42863C5.92491 8.31331 5.93667 8.19376 5.98169 8.08514C6.02672 7.97651 6.10299 7.8837 6.20082 7.81848C6.29866 7.75325 6.41366 7.71854 6.53125 7.71875H8.90625V2.375C8.90625 1.74511 9.15647 1.14102 9.60187 0.695621C10.0473 0.250223 10.6514 0 11.2812 0L16.625 0C17.2549 0 17.859 0.250223 18.3044 0.695621C18.7498 1.14102 19 1.74511 19 2.375V16.625C19 17.2549 18.7498 17.859 18.3044 18.3044C17.859 18.7498 17.2549 19 16.625 19H2.375C1.74511 19 1.14102 18.7498 0.695621 18.3044C0.250223 17.859 0 17.2549 0 16.625V2.375C0 1.74511 0.250223 1.14102 0.695621 0.695621C1.14102 0.250223 1.74511 0 2.375 0L5.34375 0C5.50122 0 5.65225 0.0625556 5.76359 0.173905C5.87494 0.285255 5.9375 0.436278 5.9375 0.59375C5.9375 0.751222 5.87494 0.902245 5.76359 1.01359C5.65225 1.12494 5.50122 1.1875 5.34375 1.1875H2.375Z" fill="#696969"/>
</g>
<defs>
<clipPath id="clip0_1551_140">
<rect width="19" height="19" fill="white"/>
</clipPath>
</defs>
</svg>
