<svg width="299" height="299" viewBox="0 0 299 299" fill="none" xmlns="http://www.w3.org/2000/svg">
<g filter="url(#filter0_d_75_163)">
<rect x="47.459" width="251" height="251" rx="53.2155" fill="url(#paint0_linear_75_163)"/>
</g>
<path d="M187.411 182.282C215.998 182.282 230.291 182.282 239.172 173.401C248.052 164.521 248.052 150.227 248.052 121.641C248.052 93.0546 248.052 78.7614 239.172 69.8807C230.291 61 215.998 61 187.411 61H157.091C128.504 61 114.211 61 105.33 69.8807C96.4497 78.7614 96.4497 93.0546 96.4497 121.641C96.4497 150.227 96.4497 164.521 105.33 173.401C110.282 178.353 116.915 180.543 126.77 181.513" fill="white" fill-opacity="0.1"/>
<path d="M187.411 182.282C178.039 182.282 167.72 186.066 158.293 190.961C143.152 198.823 135.582 202.754 131.852 200.249C128.121 197.744 128.286 192.535 129.698 177V180.516" fill="white" fill-opacity="0.1"/>
<path d="M239.172 173.401L235.636 169.866L235.636 169.866L239.172 173.401ZM239.172 69.8807L235.636 73.4161L235.636 73.4162L239.172 69.8807ZM105.33 69.8807L101.795 66.3451L101.795 66.3451L105.33 69.8807ZM105.33 173.401L108.866 169.866L108.866 169.866L105.33 173.401ZM126.281 186.489C129.029 186.759 131.476 184.751 131.746 182.002C132.017 179.254 130.008 176.807 127.26 176.537L126.281 186.489ZM158.293 190.961L160.597 195.399L160.597 195.399L158.293 190.961ZM131.852 200.249L129.064 204.4L129.065 204.401L131.852 200.249ZM129.698 177H134.698L124.719 176.547L129.698 177ZM124.698 180.516C124.698 183.277 126.937 185.516 129.698 185.516C132.46 185.516 134.698 183.277 134.698 180.516H124.698ZM187.411 187.282C201.563 187.282 212.68 187.293 221.348 186.128C230.159 184.943 237.183 182.461 242.707 176.937L235.636 169.866C232.28 173.222 227.717 175.181 220.015 176.217C212.169 177.272 201.846 177.282 187.411 177.282V187.282ZM242.707 176.937C248.231 171.413 250.713 164.388 251.898 155.577C253.063 146.91 253.052 135.793 253.052 121.641H243.052C243.052 136.076 243.042 146.399 241.987 154.245C240.951 161.947 238.993 166.509 235.636 169.866L242.707 176.937ZM253.052 121.641C253.052 107.489 253.063 96.3723 251.898 87.705C250.713 78.8938 248.231 71.8693 242.707 66.3451L235.636 73.4162C238.993 76.7728 240.951 81.3352 241.987 89.0375C243.042 96.8836 243.052 107.206 243.052 121.641H253.052ZM242.707 66.3452C237.183 60.8209 230.159 58.3393 221.347 57.1547C212.68 55.9894 201.563 56 187.411 56V66C201.846 66 212.169 66.0106 220.015 67.0655C227.717 68.101 232.28 70.0597 235.636 73.4161L242.707 66.3452ZM187.411 56H157.091V66H187.411V56ZM157.091 56C142.939 56 131.822 55.9894 123.155 57.1547C114.344 58.3393 107.319 60.821 101.795 66.3451L108.866 73.4162C112.222 70.0597 116.785 68.101 124.487 67.0655C132.333 66.0106 142.656 66 157.091 66V56ZM101.795 66.3451C96.2707 71.8694 93.789 78.8938 92.6044 87.705C91.4391 96.3723 91.4497 107.489 91.4497 121.641H101.45C101.45 107.206 101.46 96.8835 102.515 89.0375C103.551 81.3352 105.509 76.7727 108.866 73.4162L101.795 66.3451ZM91.4497 121.641C91.4497 135.793 91.4391 146.91 92.6044 155.577C93.789 164.388 96.2706 171.413 101.795 176.937L108.866 169.866C105.509 166.51 103.551 161.947 102.515 154.245C101.46 146.399 101.45 136.076 101.45 121.641H91.4497ZM101.795 176.937C107.958 183.1 115.988 185.476 126.281 186.489L127.26 176.537C117.843 175.61 112.606 173.606 108.866 169.866L101.795 176.937ZM187.411 177.282C176.842 177.282 165.667 181.498 155.989 186.524L160.597 195.399C169.773 190.634 179.235 187.282 187.411 187.282V177.282ZM155.989 186.524C148.304 190.514 142.918 193.303 138.982 194.832C137.025 195.593 135.754 195.907 134.957 195.982C134.225 196.052 134.319 195.884 134.639 196.098L129.065 204.401C131.249 205.867 133.689 206.147 135.899 205.938C138.043 205.735 140.311 205.045 142.605 204.153C147.172 202.378 153.142 199.27 160.597 195.399L155.989 186.524ZM134.639 196.099C134.617 196.084 134.033 196.014 133.834 193.162C133.62 190.093 133.959 185.357 134.678 177.453L124.719 176.547C124.025 184.178 123.576 189.813 123.858 193.859C124.156 198.122 125.356 201.91 129.064 204.4L134.639 196.099ZM124.698 177V180.516H134.698V177H124.698Z" fill="white"/>
<path d="M138.696 153.756V87.7302L199.509 116.689L188.505 105.685L206.459 87.7302V153.756L145.646 124.797L156.65 135.801L138.696 153.756Z" fill="white"/>
<defs>
<filter id="filter0_d_75_163" x="-0.00012207" y="0" width="298.459" height="298.975" filterUnits="userSpaceOnUse" color-interpolation-filters="sRGB">
<feFlood flood-opacity="0" result="BackgroundImageFix"/>
<feColorMatrix in="SourceAlpha" type="matrix" values="0 0 0 0 0 0 0 0 0 0 0 0 0 0 0 0 0 0 127 0" result="hardAlpha"/>
<feMorphology radius="14.5639" operator="erode" in="SourceAlpha" result="effect1_dropShadow_75_163"/>
<feOffset dx="-27.755" dy="28.2711"/>
<feGaussianBlur stdDeviation="17.134"/>
<feComposite in2="hardAlpha" operator="out"/>
<feColorMatrix type="matrix" values="0 0 0 0 0 0 0 0 0 0 0 0 0 0 0 0 0 0 0.15 0"/>
<feBlend mode="normal" in2="BackgroundImageFix" result="effect1_dropShadow_75_163"/>
<feBlend mode="normal" in="SourceGraphic" in2="effect1_dropShadow_75_163" result="shape"/>
</filter>
<linearGradient id="paint0_linear_75_163" x1="123.424" y1="126.635" x2="227.392" y2="358.02" gradientUnits="userSpaceOnUse">
<stop stop-color="#337DD3"/>
<stop offset="1" stop-color="#8327F8"/>
</linearGradient>
</defs>
</svg>
