<svg width="550" height="550" viewBox="0 0 550 550" fill="none" xmlns="http://www.w3.org/2000/svg">
<rect width="550" height="550" fill="url(#paint0_linear_173_87)"/>
<path d="M303.166 370.046C355.885 370.046 382.245 370.046 398.622 353.668C415 337.292 415 310.931 415 258.213C415 205.494 415 179.135 398.622 162.757C382.245 146.379 355.885 146.379 303.166 146.379H247.25C194.531 146.379 168.171 146.379 151.794 162.757C135.416 179.135 135.416 205.494 135.416 258.213C135.416 310.931 135.416 337.292 151.794 353.668C160.925 362.799 173.158 366.839 191.333 368.627" fill="white" fill-opacity="0.1"/>
<path d="M303.166 370.046C285.881 370.046 266.851 377.025 249.467 386.053C221.545 400.55 207.583 407.8 200.704 403.181C193.824 398.561 194.128 388.954 196.732 360.305V366.789" fill="white" fill-opacity="0.1"/>
<path d="M398.622 353.668L392.102 347.148L392.101 347.148L398.622 353.668ZM398.622 162.757L392.102 169.277L392.102 169.277L398.622 162.757ZM151.794 162.757L145.273 156.237L145.273 156.237L151.794 162.757ZM151.794 353.668L158.314 347.148L158.314 347.148L151.794 353.668ZM190.43 377.804C195.498 378.303 200.011 374.598 200.509 369.53C201.008 364.462 197.304 359.949 192.236 359.451L190.43 377.804ZM249.467 386.053L253.716 394.236L253.716 394.236L249.467 386.053ZM200.704 403.181L195.563 410.836L195.564 410.837L200.704 403.181ZM196.732 360.305H205.953L187.549 359.47L196.732 360.305ZM187.511 366.789C187.511 371.881 191.64 376.009 196.732 376.009C201.825 376.009 205.953 371.881 205.953 366.789H187.511ZM303.166 379.267C329.265 379.267 349.767 379.287 365.751 377.138C382 374.953 394.955 370.376 405.142 360.188L392.101 347.148C385.912 353.338 377.498 356.951 363.294 358.86C348.824 360.806 329.786 360.825 303.166 360.825V379.267ZM405.142 360.189C415.33 350.002 419.907 337.047 422.091 320.797C424.24 304.813 424.221 284.311 424.221 258.213H405.779C405.779 284.833 405.759 303.87 403.814 318.34C401.904 332.545 398.292 340.958 392.102 347.148L405.142 360.189ZM424.221 258.213C424.221 232.114 424.24 211.612 422.091 195.628C419.907 179.379 415.33 166.424 405.142 156.237L392.102 169.277C398.292 175.467 401.904 183.881 403.814 198.086C405.759 212.555 405.779 231.593 405.779 258.213H424.221ZM405.142 156.237C394.955 146.049 382 141.472 365.751 139.288C349.767 137.139 329.265 137.158 303.166 137.158V155.6C329.786 155.6 348.824 155.62 363.294 157.565C377.498 159.475 385.912 163.087 392.102 169.277L405.142 156.237ZM303.166 137.158H247.25V155.6H303.166V137.158ZM247.25 137.158C221.151 137.158 200.649 137.139 184.665 139.288C168.416 141.472 155.461 146.049 145.273 156.237L158.314 169.277C164.504 163.087 172.918 159.475 187.122 157.565C201.592 155.62 220.629 155.6 247.25 155.6V137.158ZM145.273 156.237C135.086 166.424 130.509 179.379 128.325 195.628C126.175 211.612 126.195 232.114 126.195 258.213H144.637C144.637 231.593 144.657 212.555 146.602 198.085C148.512 183.881 152.124 175.467 158.314 169.277L145.273 156.237ZM126.195 258.213C126.195 284.311 126.175 304.813 128.325 320.797C130.509 337.047 135.086 350.001 145.274 360.189L158.314 347.148C152.124 340.958 148.512 332.545 146.602 318.34C144.657 303.87 144.637 284.833 144.637 258.213H126.195ZM145.273 360.188C156.639 371.554 171.447 375.937 190.43 377.804L192.236 359.451C174.869 357.742 165.21 354.045 158.314 347.148L145.273 360.188ZM303.166 360.825C283.674 360.825 263.065 368.601 245.217 377.869L253.716 394.236C270.638 385.449 288.088 379.267 303.166 379.267V360.825ZM245.218 377.869C231.045 385.228 221.112 390.37 213.854 393.191C210.244 394.594 207.901 395.173 206.43 395.312C205.08 395.44 205.255 395.13 205.843 395.526L195.564 410.837C199.592 413.541 204.092 414.058 208.167 413.672C212.122 413.298 216.304 412.024 220.535 410.38C228.957 407.107 239.967 401.375 253.716 394.236L245.218 377.869ZM205.844 395.526C205.803 395.499 204.727 395.37 204.36 390.111C203.964 384.451 204.59 375.717 205.915 361.14L187.549 359.47C186.27 373.542 185.442 383.935 185.963 391.397C186.512 399.259 188.724 406.244 195.563 410.836L205.844 395.526ZM187.511 360.305V366.789H205.953V360.305H187.511Z" fill="white"/>
<path d="M213.326 317.438V195.675L325.477 249.08L305.183 228.786L338.294 195.675V317.438L226.143 264.033L246.437 284.327L213.326 317.438Z" fill="white"/>
<defs>
<linearGradient id="paint0_linear_173_87" x1="166.458" y1="277.487" x2="394.276" y2="784.506" gradientUnits="userSpaceOnUse">
<stop stop-color="#337DD3"/>
<stop offset="1" stop-color="#8327F8"/>
</linearGradient>
</defs>
</svg>
