<svg width="299" height="299" viewBox="0 0 299 299" fill="none" xmlns="http://www.w3.org/2000/svg">
<g filter="url(#filter0_d_75_119)">
<rect x="47.459" width="251" height="251" rx="53.2155" fill="url(#paint0_linear_75_119)"/>
</g>
<path d="M187.411 182.282C215.998 182.282 230.291 182.282 239.172 173.401C248.052 164.521 248.052 150.227 248.052 121.641C248.052 93.0546 248.052 78.7614 239.172 69.8807C230.291 61 215.998 61 187.411 61H157.091C128.504 61 114.211 61 105.33 69.8807C96.4497 78.7614 96.4497 93.0546 96.4497 121.641C96.4497 150.227 96.4497 164.521 105.33 173.401C110.282 178.353 116.915 180.543 126.77 181.513" fill="white"/>
<path d="M187.411 182.282C178.039 182.282 167.72 186.066 158.293 190.961C143.152 198.823 135.582 202.754 131.852 200.249C128.121 197.744 128.286 192.535 129.698 177V180.516" fill="white"/>
<path d="M139.696 152.781V88.7046L198.714 116.808L188.034 106.129L205.459 88.7046V152.781L146.441 124.678L157.12 135.357L139.696 152.781Z" fill="url(#paint1_linear_75_119)"/>
<defs>
<filter id="filter0_d_75_119" x="-0.00012207" y="0" width="298.459" height="298.975" filterUnits="userSpaceOnUse" color-interpolation-filters="sRGB">
<feFlood flood-opacity="0" result="BackgroundImageFix"/>
<feColorMatrix in="SourceAlpha" type="matrix" values="0 0 0 0 0 0 0 0 0 0 0 0 0 0 0 0 0 0 127 0" result="hardAlpha"/>
<feMorphology radius="14.5639" operator="erode" in="SourceAlpha" result="effect1_dropShadow_75_119"/>
<feOffset dx="-27.755" dy="28.2711"/>
<feGaussianBlur stdDeviation="17.134"/>
<feComposite in2="hardAlpha" operator="out"/>
<feColorMatrix type="matrix" values="0 0 0 0 0 0 0 0 0 0 0 0 0 0 0 0 0 0 0.15 0"/>
<feBlend mode="normal" in2="BackgroundImageFix" result="effect1_dropShadow_75_119"/>
<feBlend mode="normal" in="SourceGraphic" in2="effect1_dropShadow_75_119" result="shape"/>
</filter>
<linearGradient id="paint0_linear_75_119" x1="123.424" y1="126.635" x2="227.392" y2="358.02" gradientUnits="userSpaceOnUse">
<stop stop-color="#337DD3"/>
<stop offset="1" stop-color="#8327F8"/>
</linearGradient>
<linearGradient id="paint1_linear_75_119" x1="159.599" y1="121.033" x2="185.682" y2="180.609" gradientUnits="userSpaceOnUse">
<stop stop-color="#337DD3"/>
<stop offset="1" stop-color="#8327F8"/>
</linearGradient>
</defs>
</svg>
