<svg width="30" height="30" viewBox="0 0 30 30" fill="none" xmlns="http://www.w3.org/2000/svg">
<path opacity="0.4" d="M26.439 11.3843C25.8293 10.4138 25.1326 9.54287 24.411 8.75903L19.7204 13.4496C19.8697 13.91 19.9568 14.4076 19.9568 14.9302C19.9568 17.7172 17.7048 19.9567 14.9303 19.9567C14.4077 19.9567 13.9101 19.8696 13.4497 19.7203L9.14484 24.0252C10.9613 25.0454 12.9272 25.5804 14.9303 25.5804C17.1449 25.5804 19.2974 24.9334 21.2632 23.7266C23.229 22.5073 24.9957 20.7281 26.439 18.4637C27.6832 16.5227 27.6832 13.3376 26.439 11.3843Z" fill="#292D32"/>
<path d="M17.4432 12.4169L12.4167 17.4434C11.7822 16.7965 11.3716 15.9007 11.3716 14.9302C11.3716 12.9768 12.9641 11.3718 14.9299 11.3718C15.9004 11.3718 16.7962 11.7824 17.4432 12.4169Z" fill="#292D32"/>
<path opacity="0.4" d="M22.7063 7.15408L18.4885 11.3719C17.5802 10.4512 16.3236 9.90373 14.9301 9.90373C12.1431 9.90373 9.90362 12.1557 9.90362 14.9302C9.90362 16.3237 10.4635 17.5803 11.3718 18.4886L7.16641 22.7064H7.15397C5.77293 21.5866 4.50386 20.1558 3.42142 18.4637C2.17724 16.5103 2.17724 13.3377 3.42142 11.3843C4.86467 9.11989 6.63141 7.34071 8.59722 6.12141C10.563 4.927 12.7155 4.26758 14.9301 4.26758C17.7046 4.26758 20.3921 5.28781 22.7063 7.15408Z" fill="#292D32"/>
<path d="M18.4886 14.9303C18.4886 16.8836 16.8961 18.4886 14.9303 18.4886C14.8556 18.4886 14.7934 18.4886 14.7188 18.4637L18.4637 14.7188C18.4886 14.7934 18.4886 14.8556 18.4886 14.9303Z" fill="#292D32"/>
<path d="M27.0857 2.77457C26.7125 2.40132 26.1028 2.40132 25.7296 2.77457L2.77439 25.7422C2.40113 26.1155 2.40113 26.7251 2.77439 27.0984C2.96101 27.2726 3.19741 27.3721 3.44625 27.3721C3.69508 27.3721 3.93148 27.2726 4.11811 27.0859L27.0857 4.11829C27.4714 3.74503 27.4714 3.14783 27.0857 2.77457Z" fill="#292D32"/>
</svg>
