<svg width="41" height="41" viewBox="0 0 41 41" fill="none" xmlns="http://www.w3.org/2000/svg">
<path d="M34.0165 23.0006V20.2466C34.0165 18.7256 32.7835 17.4926 31.2625 17.4926H3.72273C2.20175 17.4926 0.96875 18.7256 0.96875 20.2466V36.7705C0.96875 38.2915 2.20175 39.5244 3.72273 39.5244H31.2625C32.7835 39.5244 34.0165 38.2915 34.0165 36.7705V34.0165M34.0165 23.0006H23.0006C19.9586 23.0006 17.4926 25.4666 17.4926 28.5085C17.4926 31.5506 19.9586 34.0165 23.0006 34.0165H34.0165M34.0165 23.0006C37.0585 23.0006 39.5244 25.4666 39.5244 28.5085C39.5244 31.5506 37.0585 34.0165 34.0165 34.0165M9.23069 17.4926V9.23069C9.23069 4.66776 12.9297 0.96875 17.4926 0.96875C22.0556 0.96875 25.7546 4.66776 25.7546 9.23069V17.4926M32.6395 28.5085H35.3935M27.1315 28.5085H29.8855M21.6236 28.5085H24.3776" stroke="#337DD3" stroke-width="1.93747"/>
</svg>
