<svg width="24" height="24" viewBox="0 0 24 24" fill="none" xmlns="http://www.w3.org/2000/svg">
<path d="M9.81987 17.6754C11.5628 17.675 13.2556 17.0915 14.6286 16.0178L18.9453 20.3346L20.3338 18.946L16.0171 14.6293C17.0914 13.2562 17.6752 11.563 17.6756 9.81962C17.6756 5.48816 14.1513 1.96387 9.81987 1.96387C5.4884 1.96387 1.96411 5.48816 1.96411 9.81962C1.96411 14.1511 5.4884 17.6754 9.81987 17.6754ZM9.81987 3.92781C13.0692 3.92781 15.7117 6.57029 15.7117 9.81962C15.7117 13.069 13.0692 15.7114 9.81987 15.7114C6.57053 15.7114 3.92805 13.069 3.92805 9.81962C3.92805 6.57029 6.57053 3.92781 9.81987 3.92781Z" fill="#C6C6C6"/>
</svg>
