<svg width="308" height="148" viewBox="0 0 308 148" fill="none" xmlns="http://www.w3.org/2000/svg">
<g filter="url(#filter0_d_1_295)">
<rect y="46.0068" width="259.231" height="51.3153" rx="25.6576" fill="#9C4EFF"/>
<rect x="1.34785" y="47.3547" width="256.535" height="48.6196" rx="24.3098" stroke="white" stroke-width="2.69569"/>
</g>
<path d="M25.4062 76.0329C24.6299 76.0329 23.9312 75.8999 23.3102 75.6337C22.6891 75.3565 22.2012 74.9683 21.8463 74.4693C21.4914 73.9702 21.314 73.388 21.314 72.7226H23.3434C23.3878 73.2216 23.5819 73.632 23.9257 73.9536C24.2805 74.2752 24.774 74.436 25.4062 74.436C26.0605 74.436 26.5706 74.2807 26.9366 73.9702C27.3026 73.6486 27.4856 73.2383 27.4856 72.7392C27.4856 72.3511 27.3691 72.035 27.1362 71.791C26.9144 71.547 26.6316 71.3585 26.2878 71.2254C25.9551 71.0923 25.4893 70.9482 24.8905 70.7929C24.1364 70.5933 23.5209 70.3937 23.044 70.1941C22.5782 69.9833 22.179 69.6617 21.8463 69.2292C21.5136 68.7967 21.3472 68.22 21.3472 67.4992C21.3472 66.8338 21.5136 66.2515 21.8463 65.7525C22.179 65.2534 22.6448 64.8708 23.2436 64.6047C23.8425 64.3385 24.5356 64.2054 25.323 64.2054C26.4431 64.2054 27.358 64.4882 28.0678 65.0538C28.7886 65.6083 29.1879 66.3735 29.2655 67.3495H27.1695C27.1362 66.928 26.9366 66.5676 26.5706 66.2682C26.2047 65.9688 25.7222 65.819 25.1234 65.819C24.58 65.819 24.1364 65.9577 23.7926 66.2349C23.4488 66.5122 23.2769 66.9114 23.2769 67.4326C23.2769 67.7875 23.3822 68.0814 23.593 68.3143C23.8148 68.5361 24.092 68.7135 24.4247 68.8466C24.7574 68.9797 25.2121 69.1239 25.7888 69.2791C26.554 69.4898 27.175 69.7005 27.6519 69.9113C28.1399 70.122 28.5502 70.4491 28.8829 70.8927C29.2267 71.3252 29.3986 71.9075 29.3986 72.6394C29.3986 73.2272 29.2378 73.7817 28.9162 74.3029C28.6056 74.8241 28.1454 75.2456 27.5355 75.5672C26.9366 75.8777 26.2268 76.0329 25.4062 76.0329ZM40.0369 71.109C40.0369 71.4528 40.0148 71.7633 39.9704 72.0405H32.9671C33.0225 72.7725 33.2942 73.3603 33.7822 73.8039C34.2701 74.2475 34.869 74.4693 35.5788 74.4693C36.599 74.4693 37.3199 74.0423 37.7413 73.1884H39.7874C39.5102 74.0312 39.0056 74.7243 38.2736 75.2677C37.5528 75.8001 36.6545 76.0662 35.5788 76.0662C34.7026 76.0662 33.9153 75.8721 33.2166 75.484C32.529 75.0848 31.9856 74.5303 31.5863 73.8205C31.1982 73.0996 31.0041 72.2679 31.0041 71.3252C31.0041 70.3826 31.1926 69.5564 31.5697 68.8466C31.9579 68.1258 32.4957 67.5713 33.1833 67.1831C33.882 66.795 34.6805 66.6009 35.5788 66.6009C36.4438 66.6009 37.2145 66.7894 37.891 67.1665C38.5675 67.5435 39.0943 68.0759 39.4714 68.7634C39.8484 69.4399 40.0369 70.2218 40.0369 71.109ZM38.0574 70.5101C38.0463 69.8114 37.7968 69.2514 37.3088 68.83C36.8208 68.4086 36.2164 68.1978 35.4956 68.1978C34.8413 68.1978 34.2812 68.4086 33.8154 68.83C33.3497 69.2403 33.0724 69.8004 32.9837 70.5101H38.0574ZM46.5277 66.6009C47.2486 66.6009 47.8918 66.7506 48.4574 67.05C49.0341 67.3495 49.4832 67.7931 49.8048 68.3808C50.1264 68.9686 50.2872 69.6784 50.2872 70.5101V75.9165H48.4075V70.7929C48.4075 69.9723 48.2023 69.3457 47.792 68.9132C47.3817 68.4696 46.8216 68.2478 46.1118 68.2478C45.4021 68.2478 44.8365 68.4696 44.4151 68.9132C44.0047 69.3457 43.7996 69.9723 43.7996 70.7929V75.9165H41.9032V66.7506H43.7996V67.7986C44.1101 67.4215 44.5038 67.1277 44.9807 66.917C45.4686 66.7062 45.9843 66.6009 46.5277 66.6009ZM52.0741 71.292C52.0741 70.3715 52.2626 69.5564 52.6397 68.8466C53.0278 68.1369 53.5491 67.5879 54.2034 67.1997C54.8688 66.8005 55.6063 66.6009 56.4158 66.6009C57.0147 66.6009 57.6025 66.734 58.1791 67.0001C58.7669 67.2552 59.2327 67.599 59.5765 68.0315V63.6066H61.4895V75.9165H59.5765V74.5358C59.266 74.9794 58.8334 75.3454 58.2789 75.6337C57.7355 75.922 57.1089 76.0662 56.3992 76.0662C55.6007 76.0662 54.8688 75.8666 54.2034 75.4674C53.5491 75.057 53.0278 74.4914 52.6397 73.7706C52.2626 73.0386 52.0741 72.2124 52.0741 71.292ZM59.5765 71.3252C59.5765 70.6931 59.4434 70.1441 59.1772 69.6784C58.9222 69.2126 58.5839 68.8577 58.1625 68.6137C57.7411 68.3697 57.2864 68.2478 56.7984 68.2478C56.3105 68.2478 55.8558 68.3697 55.4344 68.6137C55.0129 68.8466 54.6691 69.196 54.403 69.6617C54.1479 70.1164 54.0204 70.6598 54.0204 71.292C54.0204 71.9241 54.1479 72.4786 54.403 72.9555C54.6691 73.4323 55.0129 73.7983 55.4344 74.0534C55.8669 74.2974 56.3216 74.4194 56.7984 74.4194C57.2864 74.4194 57.7411 74.2974 58.1625 74.0534C58.5839 73.8094 58.9222 73.4545 59.1772 72.9887C59.4434 72.5119 59.5765 71.9574 59.5765 71.3252ZM70.1813 64.3552V71.7245C70.1813 72.6006 70.4087 73.2604 70.8633 73.704C71.3291 74.1476 71.9723 74.3694 72.793 74.3694C73.6248 74.3694 74.268 74.1476 74.7227 73.704C75.1885 73.2604 75.4213 72.6006 75.4213 71.7245V64.3552H77.3177V71.6912C77.3177 72.6339 77.1126 73.4323 76.7022 74.0867C76.2919 74.741 75.743 75.2289 75.0554 75.5505C74.3678 75.8721 73.6081 76.0329 72.7764 76.0329C71.9446 76.0329 71.185 75.8721 70.4974 75.5505C69.8209 75.2289 69.283 74.741 68.8838 74.0867C68.4845 73.4323 68.2849 72.6339 68.2849 71.6912V64.3552H70.1813ZM84.4114 66.6009C85.1323 66.6009 85.7755 66.7506 86.3411 67.05C86.9178 67.3495 87.3669 67.7931 87.6885 68.3808C88.0101 68.9686 88.1709 69.6784 88.1709 70.5101V75.9165H86.2912V70.7929C86.2912 69.9723 86.086 69.3457 85.6757 68.9132C85.2653 68.4696 84.7053 68.2478 83.9955 68.2478C83.2858 68.2478 82.7202 68.4696 82.2988 68.9132C81.8884 69.3457 81.6833 69.9723 81.6833 70.7929V75.9165H79.7869V66.7506H81.6833V67.7986C81.9938 67.4215 82.3875 67.1277 82.8644 66.917C83.3523 66.7062 83.868 66.6009 84.4114 66.6009ZM92.4863 63.6066V75.9165H90.5899V63.6066H92.4863ZM95.9409 65.5362C95.5971 65.5362 95.3088 65.4198 95.0759 65.1869C94.843 64.954 94.7266 64.6657 94.7266 64.3219C94.7266 63.9781 94.843 63.6898 95.0759 63.4569C95.3088 63.224 95.5971 63.1075 95.9409 63.1075C96.2736 63.1075 96.5564 63.224 96.7893 63.4569C97.0222 63.6898 97.1386 63.9781 97.1386 64.3219C97.1386 64.6657 97.0222 64.954 96.7893 65.1869C96.5564 65.4198 96.2736 65.5362 95.9409 65.5362ZM96.8725 66.7506V75.9165H94.9761V66.7506H96.8725ZM110.458 66.6009C111.179 66.6009 111.822 66.7506 112.388 67.05C112.964 67.3495 113.413 67.7931 113.735 68.3808C114.068 68.9686 114.234 69.6784 114.234 70.5101V75.9165H112.354V70.7929C112.354 69.9723 112.149 69.3457 111.739 68.9132C111.328 68.4696 110.768 68.2478 110.059 68.2478C109.349 68.2478 108.783 68.4696 108.362 68.9132C107.951 69.3457 107.746 69.9723 107.746 70.7929V75.9165H105.867V70.7929C105.867 69.9723 105.661 69.3457 105.251 68.9132C104.841 68.4696 104.281 68.2478 103.571 68.2478C102.861 68.2478 102.296 68.4696 101.874 68.9132C101.464 69.3457 101.259 69.9723 101.259 70.7929V75.9165H99.3623V66.7506H101.259V67.7986C101.569 67.4215 101.963 67.1277 102.44 66.917C102.917 66.7062 103.427 66.6009 103.97 66.6009C104.702 66.6009 105.356 66.7561 105.933 67.0667C106.51 67.3772 106.953 67.8263 107.264 68.4141C107.541 67.8596 107.974 67.4215 108.561 67.0999C109.149 66.7672 109.781 66.6009 110.458 66.6009ZM117.612 65.5362C117.268 65.5362 116.98 65.4198 116.747 65.1869C116.514 64.954 116.398 64.6657 116.398 64.3219C116.398 63.9781 116.514 63.6898 116.747 63.4569C116.98 63.224 117.268 63.1075 117.612 63.1075C117.945 63.1075 118.227 63.224 118.46 63.4569C118.693 63.6898 118.81 63.9781 118.81 64.3219C118.81 64.6657 118.693 64.954 118.46 65.1869C118.227 65.4198 117.945 65.5362 117.612 65.5362ZM118.544 66.7506V75.9165H116.647V66.7506H118.544ZM123.246 68.2977V73.3713C123.246 73.7151 123.323 73.9647 123.479 74.1199C123.645 74.2641 123.922 74.3362 124.31 74.3362H125.475V75.9165H123.978C123.124 75.9165 122.469 75.7169 122.015 75.3176C121.56 74.9184 121.333 74.2696 121.333 73.3713V68.2977H120.251V66.7506H121.333V64.4716H123.246V66.7506H125.475V68.2977H123.246ZM135.623 71.109C135.623 71.4528 135.601 71.7633 135.557 72.0405H128.554C128.609 72.7725 128.881 73.3603 129.369 73.8039C129.857 74.2475 130.455 74.4693 131.165 74.4693C132.185 74.4693 132.906 74.0423 133.328 73.1884H135.374C135.097 74.0312 134.592 74.7243 133.86 75.2677C133.139 75.8001 132.241 76.0662 131.165 76.0662C130.289 76.0662 129.502 75.8721 128.803 75.484C128.115 75.0848 127.572 74.5303 127.173 73.8205C126.785 73.0996 126.591 72.2679 126.591 71.3252C126.591 70.3826 126.779 69.5564 127.156 68.8466C127.544 68.1258 128.082 67.5713 128.77 67.1831C129.468 66.795 130.267 66.6009 131.165 66.6009C132.03 66.6009 132.801 66.7894 133.477 67.1665C134.154 67.5435 134.681 68.0759 135.058 68.7634C135.435 69.4399 135.623 70.2218 135.623 71.109ZM133.644 70.5101C133.633 69.8114 133.383 69.2514 132.895 68.83C132.407 68.4086 131.803 68.1978 131.082 68.1978C130.428 68.1978 129.868 68.4086 129.402 68.83C128.936 69.2403 128.659 69.8004 128.57 70.5101H133.644ZM136.858 71.292C136.858 70.3715 137.046 69.5564 137.423 68.8466C137.811 68.1369 138.332 67.5879 138.987 67.1997C139.652 66.8005 140.39 66.6009 141.199 66.6009C141.798 66.6009 142.386 66.734 142.963 67.0001C143.55 67.2552 144.016 67.599 144.36 68.0315V63.6066H146.273V75.9165H144.36V74.5358C144.049 74.9794 143.617 75.3454 143.062 75.6337C142.519 75.922 141.892 76.0662 141.183 76.0662C140.384 76.0662 139.652 75.8666 138.987 75.4674C138.332 75.057 137.811 74.4914 137.423 73.7706C137.046 73.0386 136.858 72.2124 136.858 71.292ZM144.36 71.3252C144.36 70.6931 144.227 70.1441 143.961 69.6784C143.706 69.2126 143.367 68.8577 142.946 68.6137C142.525 68.3697 142.07 68.2478 141.582 68.2478C141.094 68.2478 140.639 68.3697 140.218 68.6137C139.796 68.8466 139.453 69.196 139.186 69.6617C138.931 70.1164 138.804 70.6598 138.804 71.292C138.804 71.9241 138.931 72.4786 139.186 72.9555C139.453 73.4323 139.796 73.7983 140.218 74.0534C140.65 74.2974 141.105 74.4194 141.582 74.4194C142.07 74.4194 142.525 74.2974 142.946 74.0534C143.367 73.8094 143.706 73.4545 143.961 72.9887C144.227 72.5119 144.36 71.9574 144.36 71.3252ZM162.584 75.9165H160.687L154.981 67.2829V75.9165H153.085V64.3385H154.981L160.687 72.9555V64.3385H162.584V75.9165ZM173.475 71.109C173.475 71.4528 173.452 71.7633 173.408 72.0405H166.405C166.46 72.7725 166.732 73.3603 167.22 73.8039C167.708 74.2475 168.307 74.4693 169.016 74.4693C170.037 74.4693 170.758 74.0423 171.179 73.1884H173.225C172.948 74.0312 172.443 74.7243 171.711 75.2677C170.99 75.8001 170.092 76.0662 169.016 76.0662C168.14 76.0662 167.353 75.8721 166.654 75.484C165.967 75.0848 165.423 74.5303 165.024 73.8205C164.636 73.0996 164.442 72.2679 164.442 71.3252C164.442 70.3826 164.63 69.5564 165.007 68.8466C165.396 68.1258 165.933 67.5713 166.621 67.1831C167.32 66.795 168.118 66.6009 169.016 66.6009C169.881 66.6009 170.652 66.7894 171.329 67.1665C172.005 67.5435 172.532 68.0759 172.909 68.7634C173.286 69.4399 173.475 70.2218 173.475 71.109ZM171.495 70.5101C171.484 69.8114 171.234 69.2514 170.746 68.83C170.258 68.4086 169.654 68.1978 168.933 68.1978C168.279 68.1978 167.719 68.4086 167.253 68.83C166.787 69.2403 166.51 69.8004 166.421 70.5101H171.495ZM187.651 66.7506L184.806 75.9165H182.81L180.963 69.146L179.117 75.9165H177.121L174.26 66.7506H176.189L178.102 74.1199L180.049 66.7506H182.028L183.891 74.0867L185.788 66.7506H187.651ZM192.395 76.0662C191.674 76.0662 191.025 75.9387 190.449 75.6836C189.883 75.4175 189.434 75.0626 189.101 74.619C188.769 74.1643 188.591 73.6597 188.569 73.1052H190.532C190.565 73.4933 190.748 73.8205 191.081 74.0867C191.425 74.3417 191.852 74.4693 192.362 74.4693C192.894 74.4693 193.304 74.3694 193.593 74.1698C193.892 73.9591 194.042 73.693 194.042 73.3713C194.042 73.0276 193.876 72.7725 193.543 72.6061C193.221 72.4398 192.706 72.2568 191.996 72.0572C191.308 71.8686 190.748 71.6857 190.316 71.5082C189.883 71.3308 189.506 71.0591 189.184 70.6931C188.874 70.3271 188.719 69.8447 188.719 69.2459C188.719 68.7579 188.863 68.3143 189.151 67.9151C189.44 67.5047 189.85 67.1831 190.382 66.9502C190.926 66.7173 191.547 66.6009 192.245 66.6009C193.288 66.6009 194.125 66.867 194.757 67.3994C195.4 67.9206 195.744 68.6359 195.789 69.5453H193.892C193.859 69.135 193.693 68.8078 193.393 68.5638C193.094 68.3198 192.689 68.1978 192.179 68.1978C191.68 68.1978 191.297 68.2921 191.031 68.4806C190.765 68.6692 190.632 68.9187 190.632 69.2292C190.632 69.4732 190.72 69.6784 190.898 69.8447C191.075 70.0111 191.292 70.1441 191.547 70.244C191.802 70.3327 192.179 70.4491 192.678 70.5933C193.343 70.7707 193.887 70.9537 194.308 71.1422C194.741 71.3197 195.112 71.5859 195.423 71.9407C195.733 72.2956 195.894 72.7669 195.905 73.3547C195.905 73.8759 195.761 74.3417 195.472 74.7521C195.184 75.1624 194.774 75.484 194.241 75.7169C193.72 75.9498 193.105 76.0662 192.395 76.0662ZM199.85 63.6066V75.9165H197.954V63.6066H199.85ZM210.741 71.109C210.741 71.4528 210.719 71.7633 210.674 72.0405H203.671C203.727 72.7725 203.998 73.3603 204.486 73.8039C204.974 74.2475 205.573 74.4693 206.283 74.4693C207.303 74.4693 208.024 74.0423 208.445 73.1884H210.491C210.214 74.0312 209.71 74.7243 208.978 75.2677C208.257 75.8001 207.359 76.0662 206.283 76.0662C205.407 76.0662 204.619 75.8721 203.921 75.484C203.233 75.0848 202.69 74.5303 202.29 73.8205C201.902 73.0996 201.708 72.2679 201.708 71.3252C201.708 70.3826 201.897 69.5564 202.274 68.8466C202.662 68.1258 203.2 67.5713 203.887 67.1831C204.586 66.795 205.384 66.6009 206.283 66.6009C207.148 66.6009 207.919 66.7894 208.595 67.1665C209.272 67.5435 209.798 68.0759 210.175 68.7634C210.552 69.4399 210.741 70.2218 210.741 71.109ZM208.761 70.5101C208.75 69.8114 208.501 69.2514 208.013 68.83C207.525 68.4086 206.92 68.1978 206.2 68.1978C205.545 68.1978 204.985 68.4086 204.519 68.83C204.054 69.2403 203.776 69.8004 203.688 70.5101H208.761ZM214.82 68.2977V73.3713C214.82 73.7151 214.897 73.9647 215.053 74.1199C215.219 74.2641 215.496 74.3362 215.884 74.3362H217.049V75.9165H215.552C214.698 75.9165 214.043 75.7169 213.589 75.3176C213.134 74.9184 212.907 74.2696 212.907 73.3713V68.2977H211.825V66.7506H212.907V64.4716H214.82V66.7506H217.049V68.2977H214.82ZM221.009 68.2977V73.3713C221.009 73.7151 221.087 73.9647 221.242 74.1199C221.408 74.2641 221.686 74.3362 222.074 74.3362H223.238V75.9165H221.741C220.887 75.9165 220.233 75.7169 219.778 75.3176C219.323 74.9184 219.096 74.2696 219.096 73.3713V68.2977H218.015V66.7506H219.096V64.4716H221.009V66.7506H223.238V68.2977H221.009ZM233.387 71.109C233.387 71.4528 233.365 71.7633 233.32 72.0405H226.317C226.372 72.7725 226.644 73.3603 227.132 73.8039C227.62 74.2475 228.219 74.4693 228.929 74.4693C229.949 74.4693 230.67 74.0423 231.091 73.1884H233.137C232.86 74.0312 232.355 74.7243 231.623 75.2677C230.903 75.8001 230.004 76.0662 228.929 76.0662C228.052 76.0662 227.265 75.8721 226.566 75.484C225.879 75.0848 225.335 74.5303 224.936 73.8205C224.548 73.0996 224.354 72.2679 224.354 71.3252C224.354 70.3826 224.542 69.5564 224.919 68.8466C225.308 68.1258 225.845 67.5713 226.533 67.1831C227.232 66.795 228.03 66.6009 228.929 66.6009C229.794 66.6009 230.564 66.7894 231.241 67.1665C231.917 67.5435 232.444 68.0759 232.821 68.7634C233.198 69.4399 233.387 70.2218 233.387 71.109ZM231.407 70.5101C231.396 69.8114 231.147 69.2514 230.659 68.83C230.171 68.4086 229.566 68.1978 228.845 68.1978C228.191 68.1978 227.631 68.4086 227.165 68.83C226.699 69.2403 226.422 69.8004 226.333 70.5101H231.407ZM237.149 68.0814C237.427 67.6156 237.793 67.2552 238.247 67.0001C238.713 66.734 239.262 66.6009 239.894 66.6009V68.5638H239.412C238.669 68.5638 238.103 68.7523 237.715 69.1294C237.338 69.5065 237.149 70.1608 237.149 71.0923V75.9165H235.253V66.7506H237.149V68.0814ZM244.964 76.0662C244.243 76.0662 243.595 75.9387 243.018 75.6836C242.452 75.4175 242.003 75.0626 241.671 74.619C241.338 74.1643 241.16 73.6597 241.138 73.1052H243.101C243.134 73.4933 243.317 73.8205 243.65 74.0867C243.994 74.3417 244.421 74.4693 244.931 74.4693C245.463 74.4693 245.874 74.3694 246.162 74.1698C246.461 73.9591 246.611 73.693 246.611 73.3713C246.611 73.0276 246.445 72.7725 246.112 72.6061C245.791 72.4398 245.275 72.2568 244.565 72.0572C243.877 71.8686 243.317 71.6857 242.885 71.5082C242.452 71.3308 242.075 71.0591 241.754 70.6931C241.443 70.3271 241.288 69.8447 241.288 69.2459C241.288 68.7579 241.432 68.3143 241.72 67.9151C242.009 67.5047 242.419 67.1831 242.951 66.9502C243.495 66.7173 244.116 66.6009 244.815 66.6009C245.857 66.6009 246.694 66.867 247.326 67.3994C247.97 67.9206 248.313 68.6359 248.358 69.5453H246.461C246.428 69.135 246.262 68.8078 245.962 68.5638C245.663 68.3198 245.258 68.1978 244.748 68.1978C244.249 68.1978 243.866 68.2921 243.6 68.4806C243.334 68.6692 243.201 68.9187 243.201 69.2292C243.201 69.4732 243.29 69.6784 243.467 69.8447C243.645 70.0111 243.861 70.1441 244.116 70.244C244.371 70.3327 244.748 70.4491 245.247 70.5933C245.912 70.7707 246.456 70.9537 246.877 71.1422C247.31 71.3197 247.681 71.5859 247.992 71.9407C248.302 72.2956 248.463 72.7669 248.474 73.3547C248.474 73.8759 248.33 74.3417 248.042 74.7521C247.753 75.1624 247.343 75.484 246.811 75.7169C246.29 75.9498 245.674 76.0662 244.964 76.0662Z" fill="white"/>
<path d="M232.033 31.4271L262.296 14.9963C264.266 13.9264 266.606 15.5899 266.242 17.8026L260.734 51.31C260.31 53.8899 256.83 54.4161 255.662 52.0769L249.547 39.8295C249.146 39.0271 248.373 38.4765 247.484 38.3606L232.971 36.4693C230.38 36.1315 229.736 32.674 232.033 31.4271Z" fill="#9C4EFF" stroke="white" stroke-width="2.69569"/>
<defs>
<filter id="filter0_d_1_295" x="0" y="46.0068" width="307.753" height="101.635" filterUnits="userSpaceOnUse" color-interpolation-filters="sRGB">
<feFlood flood-opacity="0" result="BackgroundImageFix"/>
<feColorMatrix in="SourceAlpha" type="matrix" values="0 0 0 0 0 0 0 0 0 0 0 0 0 0 0 0 0 0 127 0" result="hardAlpha"/>
<feMorphology radius="15.2756" operator="erode" in="SourceAlpha" result="effect1_dropShadow_1_295"/>
<feOffset dx="27.8555" dy="29.6526"/>
<feGaussianBlur stdDeviation="17.9713"/>
<feComposite in2="hardAlpha" operator="out"/>
<feColorMatrix type="matrix" values="0 0 0 0 0 0 0 0 0 0 0 0 0 0 0 0 0 0 0.15 0"/>
<feBlend mode="normal" in2="BackgroundImageFix" result="effect1_dropShadow_1_295"/>
<feBlend mode="normal" in="SourceGraphic" in2="effect1_dropShadow_1_295" result="shape"/>
</filter>
</defs>
</svg>
