<svg width="23" height="22" viewBox="0 0 23 22" fill="none" xmlns="http://www.w3.org/2000/svg">
<path d="M2.46013 15.5444C2.5671 15.2966 2.91845 15.2966 3.02542 15.5444L3.4279 16.4767C3.46326 16.5586 3.53242 16.6211 3.61747 16.6481L4.56032 16.9471C4.84671 17.038 4.84671 17.4432 4.56032 17.5341L3.61747 17.8331C3.53242 17.8601 3.46326 17.9226 3.4279 18.0045L3.02542 18.9368C2.91845 19.1846 2.5671 19.1846 2.46013 18.9368L2.05765 18.0045C2.02229 17.9226 1.95313 17.8601 1.86808 17.8331L0.925228 17.5341C0.638845 17.4432 0.638845 17.038 0.925228 16.9471L1.86808 16.6481C1.95313 16.6211 2.02229 16.5586 2.05765 16.4767L2.46013 15.5444Z" fill="url(#paint0_linear_2296_380)"/>
<path d="M8.17271 0.780279C8.27189 0.512248 8.65099 0.512249 8.75017 0.78028L9.57643 3.0132C9.60761 3.09747 9.67405 3.16391 9.75832 3.19509L11.9912 4.02135C12.2593 4.12053 12.2593 4.49963 11.9912 4.59881L9.75832 5.42506C9.67405 5.45624 9.60761 5.52268 9.57643 5.60695L8.75017 7.83987C8.65099 8.10791 8.27189 8.1079 8.17271 7.83987L7.34646 5.60695C7.31528 5.52268 7.24884 5.45624 7.16457 5.42506L4.93165 4.59881C4.66362 4.49963 4.66362 4.12053 4.93165 4.02135L7.16457 3.19509C7.24884 3.16391 7.31528 3.09747 7.34646 3.0132L8.17271 0.780279Z" fill="url(#paint1_linear_2296_380)"/>
<path d="M14.8829 8.32956C15.0452 7.89096 15.6655 7.89096 15.8278 8.32956L17.1799 11.9834C17.2309 12.1213 17.3396 12.23 17.4775 12.2811L21.1314 13.6331C21.57 13.7954 21.57 14.4158 21.1314 14.5781L17.4775 15.9301C17.3396 15.9811 17.2309 16.0899 17.1799 16.2277L15.8278 19.8816C15.6655 20.3202 15.0452 20.3202 14.8829 19.8816L13.5308 16.2277C13.4798 16.0899 13.3711 15.9811 13.2332 15.9301L9.57931 14.5781C9.14072 14.4158 9.14072 13.7954 9.57931 13.6331L13.2332 12.2811C13.3711 12.23 13.4798 12.1213 13.5308 11.9834L14.8829 8.32956Z" fill="url(#paint2_linear_2296_380)"/>
<defs>
<linearGradient id="paint0_linear_2296_380" x1="1.6602" y1="17.2619" x2="3.40744" y2="21.7985" gradientUnits="userSpaceOnUse">
<stop stop-color="#337DD3"/>
<stop offset="1" stop-color="#8327F8"/>
</linearGradient>
<linearGradient id="paint1_linear_2296_380" x1="6.76026" y1="4.34905" x2="10.3309" y2="12.2956" gradientUnits="userSpaceOnUse">
<stop stop-color="#337DD3"/>
<stop offset="1" stop-color="#8327F8"/>
</linearGradient>
<linearGradient id="paint2_linear_2296_380" x1="12.5716" y1="14.1694" x2="18.4144" y2="27.1728" gradientUnits="userSpaceOnUse">
<stop stop-color="#337DD3"/>
<stop offset="1" stop-color="#8327F8"/>
</linearGradient>
</defs>
</svg>
