<svg width="34" height="34" viewBox="0 0 34 34" fill="none" xmlns="http://www.w3.org/2000/svg">
<path opacity="0.4" d="M29.3455 12.6359C26.1554 7.62302 21.4878 4.73682 16.5716 4.73682C14.1135 4.73682 11.7244 5.45492 9.54248 6.79445C7.36056 8.14779 5.3996 10.1226 3.79768 12.6359C2.41672 14.804 2.41672 18.3255 3.79768 20.4936C6.9877 25.5203 11.6554 28.3927 16.5716 28.3927C19.0297 28.3927 21.4187 27.6746 23.6007 26.3351C25.7826 24.9817 27.7436 23.0069 29.3455 20.4936C30.7264 18.3393 30.7264 14.804 29.3455 12.6359ZM16.5716 22.1507C13.4782 22.1507 10.9925 19.6512 10.9925 16.5717C10.9925 13.4921 13.4782 10.9926 16.5716 10.9926C19.6649 10.9926 22.1507 13.4921 22.1507 16.5717C22.1507 19.6512 19.6649 22.1507 16.5716 22.1507Z" fill="#292D32"/>
<path d="M16.5715 12.6221C14.4034 12.6221 12.6357 14.3897 12.6357 16.5716C12.6357 18.7397 14.4034 20.5074 16.5715 20.5074C18.7396 20.5074 20.521 18.7397 20.521 16.5716C20.521 14.4035 18.7396 12.6221 16.5715 12.6221Z" fill="#292D32"/>
</svg>
