<svg width="22" height="22" viewBox="0 0 22 22" fill="none" xmlns="http://www.w3.org/2000/svg">
<path d="M18.5647 5.94985C18.547 5.94985 18.5205 5.94985 18.494 5.94985C13.8174 5.48131 9.1497 5.3045 4.52619 5.77304L2.72275 5.94985C2.35146 5.98521 2.02436 5.72 1.989 5.34871C1.95364 4.97741 2.21885 4.65916 2.58131 4.6238L4.38474 4.44699C9.08781 3.96961 13.8528 4.15526 18.6266 4.6238C18.989 4.65916 19.2542 4.98625 19.2189 5.34871C19.1923 5.69348 18.9006 5.94985 18.5647 5.94985Z" fill="#292D32"/>
<path d="M7.51427 5.05662C7.47891 5.05662 7.44355 5.05662 7.39934 5.04778C7.04573 4.9859 6.7982 4.64113 6.86008 4.28751L7.05457 3.12942C7.19602 2.28075 7.3905 1.10498 9.45031 1.10498H11.7665C13.8351 1.10498 14.0296 2.32495 14.1622 3.13826L14.3567 4.28751C14.4186 4.64997 14.1711 4.99474 13.8174 5.04778C13.455 5.10966 13.1102 4.86213 13.0572 4.50852L12.8627 3.35927C12.7389 2.59016 12.7124 2.43988 11.7753 2.43988H9.45915C8.52207 2.43988 8.50439 2.56364 8.37178 3.35043L8.16846 4.49968C8.11541 4.82677 7.83252 5.05662 7.51427 5.05662Z" fill="#292D32"/>
<path d="M13.4463 20.1116H7.77083C4.68554 20.1116 4.56177 18.4054 4.46453 17.0263L3.88991 8.12405C3.86339 7.7616 4.14628 7.44335 4.50873 7.41683C4.88003 7.39914 5.18944 7.6732 5.21596 8.03565L5.79059 16.9379C5.88783 18.2816 5.92319 18.7855 7.77083 18.7855H13.4463C15.3028 18.7855 15.3382 18.2816 15.4266 16.9379L16.0012 8.03565C16.0277 7.6732 16.346 7.39914 16.7084 7.41683C17.0709 7.44335 17.3538 7.75276 17.3273 8.12405L16.7526 17.0263C16.6554 18.4054 16.5316 20.1116 13.4463 20.1116Z" fill="#292D32"/>
<path d="M12.0759 15.2494H9.13202C8.76957 15.2494 8.46899 14.9488 8.46899 14.5864C8.46899 14.2239 8.76957 13.9233 9.13202 13.9233H12.0759C12.4383 13.9233 12.7389 14.2239 12.7389 14.5864C12.7389 14.9488 12.4383 15.2494 12.0759 15.2494Z" fill="#292D32"/>
<path d="M12.8186 11.7137H8.39838C8.03592 11.7137 7.73535 11.4132 7.73535 11.0507C7.73535 10.6883 8.03592 10.3877 8.39838 10.3877H12.8186C13.181 10.3877 13.4816 10.6883 13.4816 11.0507C13.4816 11.4132 13.181 11.7137 12.8186 11.7137Z" fill="#292D32"/>
</svg>
