<svg width="41" height="41" viewBox="0 0 41 41" fill="none" xmlns="http://www.w3.org/2000/svg">
<g clip-path="url(#clip0_1539_750)">
<path d="M6.57507 2.19238H9.49751C9.49751 2.19238 13.8812 2.19238 13.8812 6.57605C13.8812 6.57605 13.8812 10.9597 9.49751 10.9597H6.57507C6.57507 10.9597 2.19141 10.9597 2.19141 6.57605C2.19141 6.57605 2.19141 2.19238 6.57507 2.19238Z" stroke="white" stroke-width="2.92244" stroke-linecap="round" stroke-linejoin="round"/>
<path d="M36.4703 38.723C37.8482 36.4499 38.7229 34.218 38.7229 30.8391C38.7229 24.0816 32.1857 22.3817 27.4602 21.8908V14.5083C27.4602 12.3313 25.6954 10.5664 23.5183 10.5664C21.3412 10.5664 19.5764 12.3313 19.5764 14.5083V26.3341L18.3367 27.0425C14.9905 28.9546 14.3785 33.5251 17.1036 36.2503L19.5764 38.723" stroke="white" stroke-width="2.92244" stroke-linecap="round" stroke-linejoin="round"/>
<path d="M21.1919 6.37329C21.2978 4.04638 23.2179 2.19238 25.571 2.19238H28.4934C30.9144 2.19238 32.8771 4.15501 32.8771 6.57605C32.8771 7.7715 32.3984 8.8552 31.6225 9.64601" stroke="white" stroke-width="2.92244" stroke-linecap="round" stroke-linejoin="round"/>
<path d="M13.8812 21.9188C13.8812 19.4978 11.9185 17.5352 9.49751 17.5352H6.57507C4.15403 17.5352 2.19141 19.4978 2.19141 21.9188C2.19141 24.3399 4.15403 26.3025 6.57507 26.3025H9.49751" stroke="white" stroke-width="2.92244" stroke-linecap="round" stroke-linejoin="round"/>
</g>
<defs>
<clipPath id="clip0_1539_750">
<rect width="40.9142" height="40.9142" fill="white"/>
</clipPath>
</defs>
</svg>
