<svg width="40" height="40" viewBox="0 0 40 40" fill="none" xmlns="http://www.w3.org/2000/svg">
<path d="M5.84484 1.46094H8.76729C8.76729 1.46094 13.1509 1.46094 13.1509 5.8446C13.1509 5.8446 13.1509 10.2283 8.76729 10.2283H5.84484C5.84484 10.2283 1.46118 10.2283 1.46118 5.8446C1.46118 5.8446 1.46118 1.46094 5.84484 1.46094Z" stroke="#696969" stroke-width="2.92244" stroke-linecap="round" stroke-linejoin="round"/>
<path d="M35.74 37.9915C37.118 35.7184 37.9926 33.4866 37.9926 30.1076C37.9926 23.3501 31.4554 21.6503 26.73 21.1594V13.7769C26.73 11.5998 24.9651 9.83496 22.7881 9.83496C20.611 9.83496 18.8462 11.5998 18.8462 13.7769V25.6026L17.6065 26.311C14.2603 28.2231 13.6482 32.7937 16.3734 35.5188L18.8462 37.9915" stroke="#696969" stroke-width="2.92244" stroke-linecap="round" stroke-linejoin="round"/>
<path d="M20.4617 5.64184C20.5676 3.31493 22.4877 1.46094 24.8407 1.46094H27.7632C30.1842 1.46094 32.1469 3.42356 32.1469 5.8446C32.1469 7.04005 31.6682 8.12375 30.8923 8.91457" stroke="#696969" stroke-width="2.92244" stroke-linecap="round" stroke-linejoin="round"/>
<path d="M13.1509 21.1874C13.1509 18.7663 11.1883 16.8037 8.76729 16.8037H5.84484C3.42381 16.8037 1.46118 18.7663 1.46118 21.1874C1.46118 23.6084 3.42381 25.571 5.84484 25.571H8.76729" stroke="#696969" stroke-width="2.92244" stroke-linecap="round" stroke-linejoin="round"/>
</svg>
