<svg width="52" height="52" viewBox="0 0 52 52" fill="none" xmlns="http://www.w3.org/2000/svg">
<path d="M25.5345 31.5197V5.58594M19.5498 12.5681L25.5345 5.58594L31.5192 12.5681" stroke="white" stroke-width="3.19185" stroke-linecap="round" stroke-linejoin="round"/>
<path d="M17.5551 45.484H33.5144C39.1568 45.484 41.978 45.484 43.7309 43.7311C45.4838 41.9784 45.4838 39.157 45.4838 33.5146V31.5197C45.4838 25.8773 45.4838 23.0561 43.7309 21.3031C42.198 19.7703 39.8482 19.5779 35.5093 19.5537M15.5602 19.5537C11.2212 19.5779 8.87142 19.7703 7.33858 21.3031C5.58569 23.0561 5.58569 25.8773 5.58569 31.5197V33.5146C5.58569 39.157 5.58569 41.9784 7.33858 43.7311C7.93665 44.3292 8.65909 44.7232 9.57551 44.9829" stroke="white" stroke-width="3.19185" stroke-linecap="round"/>
</svg>
