<svg width="52" height="52" viewBox="0 0 52 52" fill="none" xmlns="http://www.w3.org/2000/svg">
<path d="M25.535 31.5197V5.58594M19.5503 12.5681L25.535 5.58594L31.5197 12.5681" stroke="#696969" stroke-width="3.19185" stroke-linecap="round" stroke-linejoin="round"/>
<path d="M17.5554 45.484H33.5146C39.157 45.484 41.9782 45.484 43.7311 43.7311C45.4841 41.9784 45.4841 39.157 45.4841 33.5146V31.5197C45.4841 25.8773 45.4841 23.0561 43.7311 21.3031C42.1983 19.7703 39.8485 19.5779 35.5095 19.5537M15.5605 19.5537C11.2215 19.5779 8.87167 19.7703 7.33882 21.3031C5.58594 23.0561 5.58594 25.8773 5.58594 31.5197V33.5146C5.58594 39.157 5.58594 41.9784 7.33882 43.7311C7.9369 44.3292 8.65933 44.7232 9.57575 44.9829" stroke="#696969" stroke-width="3.19185" stroke-linecap="round"/>
</svg>
